<svg width="56" height="57" viewBox="0 0 56 57" fill="none" xmlns="http://www.w3.org/2000/svg">
<g id="Beach">
<path id="Vector" d="M15.9862 13.5133C15.7807 13.5132 15.5818 13.4407 15.4243 13.3085C15.2669 13.1764 15.161 12.993 15.1252 12.7906L14.847 11.2226C14.8064 10.994 14.8582 10.7587 14.9912 10.5683C15.1241 10.378 15.3272 10.2482 15.5557 10.2076C15.7843 10.167 16.0197 10.2188 16.21 10.3518C16.4004 10.4847 16.5301 10.6878 16.5707 10.9163L16.849 12.4843C16.8715 12.6104 16.8661 12.7399 16.8332 12.8636C16.8002 12.9874 16.7404 13.1024 16.6582 13.2005C16.5759 13.2987 16.4731 13.3775 16.357 13.4316C16.2409 13.4856 16.1143 13.5135 15.9862 13.5133ZM23.1595 53.9366C22.9539 53.9364 22.755 53.8639 22.5976 53.7318C22.4401 53.5996 22.3343 53.4163 22.2985 53.2138L16.9872 23.2836C16.9466 23.055 16.9985 22.8197 17.1314 22.6293C17.2643 22.439 17.4674 22.3092 17.696 22.2686C17.9246 22.228 18.1599 22.2798 18.3503 22.4128C18.5406 22.5457 18.6704 22.7488 18.711 22.9773L24.0222 52.9076C24.0448 53.0337 24.0394 53.1631 24.0064 53.2869C23.9734 53.4106 23.9137 53.5256 23.8314 53.6238C23.7491 53.7219 23.6463 53.8008 23.5302 53.8548C23.4141 53.9089 23.2876 53.9368 23.1595 53.9366Z" fill="#2959A1"/>
<path id="Vector_2" d="M51.1875 53.9453H3.9375C3.70544 53.9453 3.48288 53.8531 3.31878 53.689C3.15469 53.5249 3.0625 53.3024 3.0625 53.0703C3.0625 52.8382 3.15469 52.6157 3.31878 52.4516C3.48288 52.2875 3.70544 52.1953 3.9375 52.1953H51.1875C51.4196 52.1953 51.6421 52.2875 51.8062 52.4516C51.9703 52.6157 52.0625 52.8382 52.0625 53.0703C52.0625 53.3024 51.9703 53.5249 51.8062 53.689C51.6421 53.8531 51.4196 53.9453 51.1875 53.9453ZM44.1875 45.1953H12.6875C12.5434 45.1954 12.4015 45.1598 12.2744 45.0917C12.1474 45.0236 12.0392 44.9251 11.9595 44.8051L4.9595 34.3051C4.89179 34.2096 4.84393 34.1014 4.81875 33.9871C4.79358 33.8728 4.7916 33.7546 4.81293 33.6395C4.83427 33.5244 4.87849 33.4147 4.94297 33.317C5.00745 33.2193 5.09088 33.1355 5.18832 33.0706C5.28576 33.0058 5.39523 32.9611 5.51025 32.9393C5.62526 32.9175 5.74349 32.9189 5.85792 32.9437C5.97235 32.9684 6.08066 33.0158 6.17643 33.0831C6.27221 33.1504 6.3535 33.2363 6.4155 33.3356L13.1565 43.4453H44.1875C44.4196 43.4453 44.6421 43.5375 44.8062 43.7016C44.9703 43.8657 45.0625 44.0882 45.0625 44.3203C45.0625 44.5524 44.9703 44.7749 44.8062 44.939C44.6421 45.1031 44.4196 45.1953 44.1875 45.1953Z" fill="#2959A1"/>
<path id="Vector_3" d="M9.18751 53.9453C9.04449 53.9451 8.90368 53.9099 8.77736 53.8429C8.65105 53.7758 8.54305 53.6788 8.46281 53.5605C8.38256 53.4421 8.33249 53.3058 8.31697 53.1637C8.30145 53.0215 8.32094 52.8777 8.37376 52.7448L11.8738 43.9948C11.9164 43.888 11.9796 43.7907 12.0599 43.7084C12.1401 43.6261 12.2358 43.5604 12.3414 43.5151C12.447 43.4697 12.5605 43.4456 12.6755 43.4442C12.7904 43.4427 12.9045 43.4639 13.0113 43.5065C13.118 43.5491 13.2153 43.6124 13.2976 43.6926C13.3799 43.7729 13.4456 43.8685 13.491 43.9741C13.5363 44.0798 13.5604 44.1933 13.5619 44.3082C13.5633 44.4232 13.5421 44.5373 13.4995 44.644L9.99951 53.394C9.93478 53.5565 9.82281 53.6959 9.67807 53.7942C9.53333 53.8925 9.36245 53.9451 9.18751 53.9453ZM47.6875 53.9453C47.5128 53.9452 47.342 53.8929 47.1973 53.7949C47.0526 53.697 46.9405 53.558 46.8755 53.3958L43.3755 44.6458C43.3329 44.539 43.3117 44.4249 43.3132 44.31C43.3146 44.195 43.3387 44.0815 43.384 43.9759C43.4294 43.8703 43.4951 43.7746 43.5774 43.6944C43.6597 43.6141 43.757 43.5509 43.8638 43.5083C43.9705 43.4656 44.0846 43.4445 44.1995 43.4459C44.3145 43.4474 44.428 43.4715 44.5336 43.5168C44.6393 43.5621 44.7349 43.6278 44.8152 43.7102C44.8954 43.7925 44.9586 43.8898 45.0013 43.9965L48.5013 52.7465C48.5541 52.8793 48.5737 53.0231 48.5582 53.1652C48.5427 53.3073 48.4926 53.4434 48.4123 53.5617C48.332 53.68 48.224 53.7768 48.0976 53.8437C47.9713 53.9105 47.8305 53.9454 47.6875 53.9453ZM4.06351 26.4528C3.85796 26.4526 3.65902 26.3801 3.50159 26.248C3.34416 26.1158 3.23827 25.9324 3.20251 25.73C2.66176 22.6903 3.71526 19.5735 6.16526 16.952C8.55051 14.4005 11.9945 12.6155 15.862 11.9295C23.9365 10.4928 31.3985 14.355 32.4958 20.5308C32.5164 20.644 32.5144 20.7602 32.4899 20.8727C32.4654 20.9851 32.4188 21.0916 32.3529 21.186C32.287 21.2804 32.2031 21.3607 32.106 21.4225C32.0088 21.4842 31.9004 21.5261 31.787 21.5458L4.21751 26.4388C4.16665 26.4477 4.11514 26.4524 4.06351 26.4528ZM19.2535 13.3785C18.2473 13.3785 17.213 13.4678 16.1665 13.6533C12.67 14.2745 9.57251 15.8705 7.44276 18.1473C5.61926 20.0985 4.70751 22.3438 4.82476 24.554L30.5655 19.9865C29.3405 16.0018 24.7153 13.3785 19.2535 13.3785Z" fill="#2959A1"/>
<path id="Vector_4" d="M9.23303 25.534C9.02748 25.5339 8.82855 25.4614 8.67111 25.3292C8.51368 25.1971 8.40779 25.0137 8.37203 24.8113C7.84528 21.8485 8.31778 18.8858 9.70028 16.4655C11.1125 13.9963 13.3 12.3845 15.8603 11.9313C21.091 11.0073 26.229 15.2755 27.3245 21.4495C27.3452 21.5628 27.3432 21.679 27.3187 21.7914C27.2941 21.9039 27.2476 22.0104 27.1817 22.1047C27.1158 22.1991 27.0319 22.2795 26.9347 22.3413C26.8376 22.403 26.7292 22.4449 26.6158 22.4645L9.38528 25.5218C9.33497 25.5302 9.28404 25.5343 9.23303 25.534ZM17.304 13.5535C16.9278 13.5535 16.548 13.5868 16.1683 13.6533C14.126 14.0155 12.369 15.3228 11.2193 17.3353C10.1728 19.1658 9.74053 21.376 9.97328 23.6388L25.4188 20.8983C24.318 16.5863 20.9335 13.5535 17.304 13.5535Z" fill="#2959A1"/>
<path id="Vector_5" d="M14.4008 24.6171C14.1952 24.6169 13.9963 24.5444 13.8388 24.4122C13.6814 24.2801 13.5755 24.0967 13.5398 23.8943C13.0323 21.0436 12.929 18.2838 13.2475 16.1243C13.7148 12.9568 14.9258 12.0958 15.8603 11.9296C18.662 11.4186 21.168 16.7998 22.155 22.3648C22.1756 22.478 22.1737 22.5942 22.1491 22.7067C22.1246 22.8192 22.0781 22.9257 22.0122 23.02C21.9463 23.1144 21.8623 23.1948 21.7652 23.2565C21.6681 23.3183 21.5597 23.3602 21.4463 23.3798L14.5548 24.6031C14.504 24.6129 14.4524 24.6176 14.4008 24.6171ZM16.233 13.6481C16.2107 13.648 16.1885 13.6498 16.1665 13.6533C15.8883 13.7023 15.281 14.3376 14.98 16.3798C14.721 18.1438 14.7718 20.3698 15.1235 22.7253L20.2685 21.8136C19.1573 16.3973 17.1098 13.6481 16.233 13.6481ZM43.3125 17.1953C40.901 17.1953 38.9375 15.2318 38.9375 12.8203C38.9375 10.4088 40.901 8.44531 43.3125 8.44531C45.724 8.44531 47.6875 10.4088 47.6875 12.8203C47.6875 15.2318 45.724 17.1953 43.3125 17.1953ZM43.3125 10.1953C41.8653 10.1953 40.6875 11.3731 40.6875 12.8203C40.6875 14.2676 41.8653 15.4453 43.3125 15.4453C44.7598 15.4453 45.9375 14.2676 45.9375 12.8203C45.9375 11.3731 44.7598 10.1953 43.3125 10.1953ZM43.3125 6.69531C43.0804 6.69531 42.8579 6.60313 42.6938 6.43903C42.5297 6.27494 42.4375 6.05238 42.4375 5.82031V4.07031C42.4375 3.83825 42.5297 3.61569 42.6938 3.45159C42.8579 3.2875 43.0804 3.19531 43.3125 3.19531C43.5446 3.19531 43.7671 3.2875 43.9312 3.45159C44.0953 3.61569 44.1875 3.83825 44.1875 4.07031V5.82031C44.1875 6.05238 44.0953 6.27494 43.9312 6.43903C43.7671 6.60313 43.5446 6.69531 43.3125 6.69531ZM43.3125 22.4453C43.0804 22.4453 42.8579 22.3531 42.6938 22.189C42.5297 22.0249 42.4375 21.8024 42.4375 21.5703V19.8203C42.4375 19.5882 42.5297 19.3657 42.6938 19.2016C42.8579 19.0375 43.0804 18.9453 43.3125 18.9453C43.5446 18.9453 43.7671 19.0375 43.9312 19.2016C44.0953 19.3657 44.1875 19.5882 44.1875 19.8203V21.5703C44.1875 21.8024 44.0953 22.0249 43.9312 22.189C43.7671 22.3531 43.5446 22.4453 43.3125 22.4453ZM52.0625 13.6953H50.3125C50.0804 13.6953 49.8579 13.6031 49.6938 13.439C49.5297 13.2749 49.4375 13.0524 49.4375 12.8203C49.4375 12.5882 49.5297 12.3657 49.6938 12.2016C49.8579 12.0375 50.0804 11.9453 50.3125 11.9453H52.0625C52.2946 11.9453 52.5171 12.0375 52.6812 12.2016C52.8453 12.3657 52.9375 12.5882 52.9375 12.8203C52.9375 13.0524 52.8453 13.2749 52.6812 13.439C52.5171 13.6031 52.2946 13.6953 52.0625 13.6953ZM36.3125 13.6953H34.5625C34.3304 13.6953 34.1079 13.6031 33.9438 13.439C33.7797 13.2749 33.6875 13.0524 33.6875 12.8203C33.6875 12.5882 33.7797 12.3657 33.9438 12.2016C34.1079 12.0375 34.3304 11.9453 34.5625 11.9453H36.3125C36.5446 11.9453 36.7671 12.0375 36.9312 12.2016C37.0953 12.3657 37.1875 12.5882 37.1875 12.8203C37.1875 13.0524 37.0953 13.2749 36.9312 13.439C36.7671 13.6031 36.5446 13.6953 36.3125 13.6953ZM48.2633 8.74456C48.0903 8.74453 47.9213 8.69325 47.7775 8.59721C47.6337 8.50117 47.5216 8.36468 47.4553 8.20496C47.389 8.04524 47.3715 7.86946 47.4051 7.69982C47.4386 7.53018 47.5217 7.37428 47.6438 7.25181L48.881 6.01456C49.046 5.85517 49.2671 5.76698 49.4965 5.76897C49.7259 5.77097 49.9454 5.86299 50.1076 6.02522C50.2698 6.18745 50.3619 6.40691 50.3639 6.63634C50.3658 6.86576 50.2776 7.08679 50.1183 7.25181L48.881 8.48906C48.8 8.57037 48.7038 8.63481 48.5977 8.67867C48.4917 8.72252 48.378 8.74492 48.2633 8.74456ZM37.1245 19.8833C36.9516 19.8833 36.7825 19.832 36.6387 19.736C36.4949 19.6399 36.3828 19.5034 36.3165 19.3437C36.2502 19.184 36.2328 19.0082 36.2663 18.8386C36.2999 18.6689 36.3829 18.513 36.505 18.3906L37.7423 17.1533C37.9073 16.9939 38.1283 16.9057 38.3577 16.9077C38.5872 16.9097 38.8066 17.0017 38.9689 17.164C39.1311 17.3262 39.2231 17.5457 39.2251 17.7751C39.2271 18.0045 39.1389 18.2255 38.9795 18.3906L37.7423 19.6278C37.6612 19.709 37.5649 19.7733 37.4589 19.8172C37.3528 19.861 37.2392 19.8835 37.1245 19.8833ZM49.5005 19.8833C49.2684 19.8833 49.0456 19.7915 48.881 19.6278L47.6438 18.3906C47.4844 18.2255 47.3962 18.0045 47.3982 17.7751C47.4002 17.5457 47.4922 17.3262 47.6544 17.164C47.8167 17.0017 48.0361 16.9097 48.2655 16.9077C48.495 16.9057 48.716 16.9939 48.881 17.1533L50.1183 18.3906C50.2402 18.5129 50.3233 18.6687 50.3569 18.8381C50.3905 19.0076 50.3731 19.1833 50.3071 19.3429C50.241 19.5025 50.1292 19.6391 49.9856 19.7352C49.8421 19.8314 49.6733 19.8829 49.5005 19.8833ZM38.3618 8.74456C38.1296 8.74459 37.9069 8.65274 37.7423 8.48906L36.505 7.25181C36.3456 7.08679 36.2574 6.86576 36.2594 6.63634C36.2614 6.40691 36.3534 6.18745 36.5157 6.02522C36.6779 5.86299 36.8974 5.77097 37.1268 5.76897C37.3562 5.76698 37.5772 5.85517 37.7423 6.01456L38.9795 7.25181C39.1015 7.37418 39.1845 7.52991 39.2181 7.69939C39.2517 7.86887 39.2344 8.0445 39.1683 8.20415C39.1023 8.3638 38.9904 8.50031 38.8469 8.59648C38.7033 8.69266 38.5345 8.74418 38.3618 8.74456Z" fill="#2959A1"/>
</g>
</svg>
