<svg width="70" height="71" viewBox="0 0 70 71" fill="none" xmlns="http://www.w3.org/2000/svg">
<g id="Drone">
<path id="Vector" d="M35 43.6094C34.7837 43.6094 34.5722 43.6735 34.3923 43.7937C34.2125 43.9139 34.0723 44.0847 33.9895 44.2846C33.9067 44.4844 33.8851 44.7043 33.9273 44.9165C33.9695 45.1287 34.0736 45.3236 34.2266 45.4765C34.3796 45.6295 34.5745 45.7337 34.7866 45.7759C34.9988 45.8181 35.2187 45.7964 35.4186 45.7136C35.6184 45.6308 35.7892 45.4906 35.9094 45.3108C36.0296 45.1309 36.0938 44.9194 36.0938 44.7031C36.0938 44.413 35.9785 44.1348 35.7734 43.9297C35.5683 43.7246 35.2901 43.6094 35 43.6094Z" fill="#2959A1"/>
<path id="Vector_2" d="M60.1562 29.2047C59.286 29.2047 58.4514 29.5504 57.8361 30.1657C57.2207 30.7811 56.875 31.6157 56.875 32.4859V34.8812H49.2188V34.7281C49.2188 33.8579 48.873 33.0233 48.2577 32.4079C47.6423 31.7926 46.8077 31.4469 45.9375 31.4469H44.2422C43.8577 30.7808 43.3043 30.2279 42.638 29.8439C41.9717 29.4598 41.2159 29.2582 40.4469 29.2594H28.4375C27.7587 29.259 27.0964 29.4692 26.5421 29.861C25.9877 30.2528 25.5685 30.8069 25.3422 31.4469H24.0625C23.1923 31.4469 22.3577 31.7926 21.7423 32.4079C21.127 33.0233 20.7812 33.8579 20.7812 34.7281V34.8812H13.125V32.4859C13.125 31.6157 12.7793 30.7811 12.1639 30.1657C11.5486 29.5504 10.714 29.2047 9.84375 29.2047C8.97351 29.2047 8.13891 29.5504 7.52356 30.1657C6.9082 30.7811 6.5625 31.6157 6.5625 32.4859V39.2016C6.5625 40.0718 6.9082 40.9064 7.52356 41.5217C8.13891 42.1371 8.97351 42.4828 9.84375 42.4828C10.714 42.4828 11.5486 42.1371 12.1639 41.5217C12.7793 40.9064 13.125 40.0718 13.125 39.2016V37.0141H20.7812V40.2297C20.7812 40.5198 20.8965 40.798 21.1016 41.0031C21.3067 41.2082 21.5849 41.3234 21.875 41.3234H25.1562V41.6625L19.3375 43.6312C19.1869 43.6821 19.0491 43.7653 18.9339 43.8748C18.8187 43.9844 18.7287 44.1177 18.6703 44.2656L14.5687 54.6562H12.0312C11.7412 54.6562 11.463 54.7715 11.2579 54.9766C11.0527 55.1817 10.9375 55.4599 10.9375 55.75C10.9375 56.0401 11.0527 56.3183 11.2579 56.5234C11.463 56.7285 11.7412 56.8437 12.0312 56.8437H18.5938C18.8838 56.8437 19.162 56.7285 19.3671 56.5234C19.5723 56.3183 19.6875 56.0401 19.6875 55.75C19.6875 55.4599 19.5723 55.1817 19.3671 54.9766C19.162 54.7715 18.8838 54.6562 18.5938 54.6562H16.9203L20.5188 45.5344L25.1562 44.025V45.8297C25.1562 46.1198 25.2715 46.398 25.4766 46.6031C25.6817 46.8082 25.9599 46.9234 26.25 46.9234H29.9906C30.417 47.897 31.1179 48.7253 32.0076 49.3069C32.8972 49.8885 33.9371 50.1982 35 50.1982C36.0629 50.1982 37.1028 49.8885 37.9924 49.3069C38.8821 48.7253 39.583 47.897 40.0094 46.9234H43.75C44.0401 46.9234 44.3183 46.8082 44.5234 46.6031C44.7285 46.398 44.8438 46.1198 44.8438 45.8297V44.025L49.4813 45.5891L53.0797 54.7109H51.4062C51.1162 54.7109 50.838 54.8262 50.6329 55.0313C50.4277 55.2364 50.3125 55.5146 50.3125 55.8047C50.3125 56.0948 50.4277 56.373 50.6329 56.5781C50.838 56.7832 51.1162 56.8984 51.4062 56.8984H57.9688C58.2588 56.8984 58.537 56.7832 58.7421 56.5781C58.9473 56.373 59.0625 56.0948 59.0625 55.8047C59.0625 55.5146 58.9473 55.2364 58.7421 55.0313C58.537 54.8262 58.2588 54.7109 57.9688 54.7109H55.4313L51.3297 44.3203C51.2713 44.1724 51.1813 44.0391 51.0661 43.9295C50.9509 43.8199 50.8131 43.7368 50.6625 43.6859L44.8438 41.7172V41.3781H48.125C48.4151 41.3781 48.6933 41.2629 48.8984 41.0578C49.1035 40.8526 49.2188 40.5745 49.2188 40.2844V37.0687H56.875V39.2562C56.875 40.1265 57.2207 40.9611 57.8361 41.5764C58.4514 42.1918 59.286 42.5375 60.1562 42.5375C61.0265 42.5375 61.8611 42.1918 62.4764 41.5764C63.0918 40.9611 63.4375 40.1265 63.4375 39.2562V32.4859C63.4375 31.6157 63.0918 30.7811 62.4764 30.1657C61.8611 29.5504 61.0265 29.2047 60.1562 29.2047ZM10.9375 39.2016C10.9375 39.4916 10.8223 39.7698 10.6171 39.975C10.412 40.1801 10.1338 40.2953 9.84375 40.2953C9.55367 40.2953 9.27547 40.1801 9.07035 39.975C8.86523 39.7698 8.75 39.4916 8.75 39.2016V32.4859C8.75 32.1959 8.86523 31.9177 9.07035 31.7125C9.27547 31.5074 9.55367 31.3922 9.84375 31.3922C10.1338 31.3922 10.412 31.5074 10.6171 31.7125C10.8223 31.9177 10.9375 32.1959 10.9375 32.4859V39.2016ZM42.6562 40.2953V41.3891H39.375C38.8769 40.6936 38.2202 40.1269 37.4594 39.7359C36.6985 39.345 35.8554 39.1411 35 39.1411C34.1446 39.1411 33.3015 39.345 32.5406 39.7359C31.7798 40.1269 31.1231 40.6936 30.625 41.3891H27.3438V36.9375H42.6562V40.2953ZM27.3438 32.5078C27.3438 32.2177 27.459 31.9395 27.6641 31.7344C27.8692 31.5293 28.1474 31.4141 28.4375 31.4141H40.4688C41.0489 31.4141 41.6053 31.6445 42.0155 32.0548C42.4258 32.465 42.6562 33.0214 42.6562 33.6016V34.6953H27.3438V32.5078ZM22.9688 39.1906V34.7281C22.9688 34.438 23.084 34.1598 23.2891 33.9547C23.4942 33.7496 23.7724 33.6344 24.0625 33.6344H25.1562V39.2125L22.9688 39.1906ZM27.3438 44.7359V43.6422H29.6406C29.572 44.0028 29.5354 44.3688 29.5312 44.7359H27.3438ZM35 48.0172C34.3354 48.0302 33.682 47.8451 33.123 47.4853C32.5641 47.1256 32.1249 46.6075 31.8615 45.9972C31.5981 45.3869 31.5224 44.712 31.644 44.0585C31.7656 43.405 32.0791 42.8026 32.5445 42.3279C33.0098 41.8532 33.606 41.5279 34.2569 41.3934C34.9079 41.2588 35.5842 41.3211 36.1995 41.5724C36.8149 41.8237 37.3416 42.2525 37.7123 42.8042C38.0831 43.356 38.2811 44.0056 38.2812 44.6703C38.2959 45.1103 38.2219 45.5488 38.0636 45.9596C37.9053 46.3704 37.6659 46.7452 37.3597 47.0615C37.0536 47.3779 36.6869 47.6294 36.2815 47.8011C35.8761 47.9728 35.4403 48.0612 35 48.0609V48.0172ZM42.6562 44.7359H40.4688C40.4646 44.3688 40.428 44.0028 40.3594 43.6422H42.6562V44.7359ZM47.0312 39.1906H44.8438V33.6125H45.9375C46.2276 33.6125 46.5058 33.7277 46.7109 33.9328C46.916 34.138 47.0312 34.4162 47.0312 34.7062V39.1906ZM61.25 39.1906C61.25 39.4807 61.1348 39.7589 60.9296 39.964C60.7245 40.1691 60.4463 40.2844 60.1562 40.2844C59.8662 40.2844 59.588 40.1691 59.3829 39.964C59.1777 39.7589 59.0625 39.4807 59.0625 39.1906V32.4859C59.0625 32.1959 59.1777 31.9177 59.3829 31.7125C59.588 31.5074 59.8662 31.3922 60.1562 31.3922C60.4463 31.3922 60.7245 31.5074 60.9296 31.7125C61.1348 31.9177 61.25 32.1959 61.25 32.4859V39.1906Z" fill="#2959A1"/>
<path id="Vector_3" d="M15.3125 28.089C15.3125 27.7989 15.1973 27.5207 14.9921 27.3156C14.787 27.1105 14.5088 26.9953 14.2188 26.9953H5.46875C5.17867 26.9953 4.90047 27.1105 4.69535 27.3156C4.49023 27.5207 4.375 27.7989 4.375 28.089C4.375 28.3791 4.49023 28.6573 4.69535 28.8624C4.90047 29.0675 5.17867 29.1828 5.46875 29.1828H14.2188C14.5088 29.1828 14.787 29.0675 14.9921 28.8624C15.1973 28.6573 15.3125 28.3791 15.3125 28.089ZM64.5312 26.9953H55.7812C55.4912 26.9953 55.213 27.1105 55.0079 27.3156C54.8027 27.5207 54.6875 27.7989 54.6875 28.089C54.6875 28.3791 54.8027 28.6573 55.0079 28.8624C55.213 29.0675 55.4912 29.1828 55.7812 29.1828H64.5312C64.8213 29.1828 65.0995 29.0675 65.3046 28.8624C65.5098 28.6573 65.625 28.3791 65.625 28.089C65.625 27.7989 65.5098 27.5207 65.3046 27.3156C65.0995 27.1105 64.8213 26.9953 64.5312 26.9953ZM27.5516 19.2953C29.5649 17.4041 32.2382 16.3756 35 16.4296C37.7911 16.4431 40.4714 17.5231 42.4922 19.4484C42.6971 19.6521 42.9743 19.7665 43.2633 19.7665C43.5522 19.7665 43.8294 19.6521 44.0344 19.4484C44.2381 19.2435 44.3524 18.9663 44.3524 18.6773C44.3524 18.3884 44.2381 18.1111 44.0344 17.9062C41.605 15.5702 38.3702 14.2583 35 14.2421C31.6804 14.1844 28.4711 15.4336 26.0641 17.7203C25.8795 17.9255 25.7793 18.193 25.7837 18.469C25.7881 18.745 25.8966 19.0091 26.0876 19.2084C26.2786 19.4077 26.5379 19.5274 26.8135 19.5435C27.0891 19.5596 27.3605 19.471 27.5734 19.2953H27.5516Z" fill="#2959A1"/>
<path id="Vector_4" d="M39.9547 22.8609C40.1724 22.8601 40.3848 22.7943 40.5649 22.672C40.745 22.5497 40.8844 22.3765 40.9655 22.1744C41.0465 21.9724 41.0654 21.7508 41.0198 21.538C40.9742 21.3251 40.8661 21.1308 40.7094 20.9797C39.1738 19.505 37.1291 18.6785 35 18.6719C32.9228 18.6429 30.9167 19.4281 29.4109 20.8594C29.2072 21.0643 29.0929 21.3415 29.0929 21.6305C29.0929 21.9194 29.2072 22.1966 29.4109 22.4016C29.5126 22.5041 29.6336 22.5855 29.7669 22.641C29.9002 22.6965 30.0431 22.7251 30.1875 22.7251C30.3319 22.7251 30.4749 22.6965 30.6081 22.641C30.7414 22.5855 30.8624 22.5041 30.9641 22.4016C32.0579 21.3827 33.5054 20.8296 35 20.8594C36.5612 20.871 38.0592 21.4772 39.1891 22.5547C39.3946 22.7528 39.6693 22.8627 39.9547 22.8609ZM32.8781 25.3109C32.8781 25.7436 33.0064 26.1665 33.2468 26.5263C33.4872 26.886 33.8288 27.1664 34.2285 27.3319C34.6282 27.4975 35.0681 27.5408 35.4924 27.4564C35.9167 27.372 36.3065 27.1637 36.6124 26.8577C36.9184 26.5518 37.1267 26.162 37.2111 25.7377C37.2955 25.3134 37.2522 24.8735 37.0866 24.4738C36.9211 24.0741 36.6407 23.7325 36.2809 23.4921C35.9212 23.2517 35.4983 23.1234 35.0656 23.1234C34.4855 23.1234 33.9291 23.3539 33.5188 23.7642C33.1086 24.1744 32.8781 24.7308 32.8781 25.3109Z" fill="#2959A1"/>
</g>
</svg>
