<svg width="56" height="57" viewBox="0 0 56 57" fill="none" xmlns="http://www.w3.org/2000/svg">
<g id="Food">
<path id="Vector" d="M28 11.9453C24.7119 11.9453 21.4976 12.9204 18.7637 14.7471C16.0297 16.5739 13.8988 19.1704 12.6405 22.2082C11.3822 25.246 11.053 28.5888 11.6945 31.8137C12.3359 35.0386 13.9193 38.0009 16.2444 40.326C18.5694 42.651 21.5317 44.2344 24.7566 44.8759C27.9816 45.5173 31.3243 45.1881 34.3621 43.9298C37.3999 42.6715 39.9964 40.5406 41.8232 37.8067C43.65 35.0727 44.625 31.8584 44.625 28.5703C44.6201 24.1626 42.867 19.9368 39.7503 16.82C36.6335 13.7033 32.4077 11.9502 28 11.9453ZM28 43.4453C25.058 43.4453 22.1821 42.5729 19.7359 40.9384C17.2897 39.3039 15.3832 36.9808 14.2573 34.2627C13.1314 31.5447 12.8369 28.5538 13.4108 25.6683C13.9848 22.7829 15.4015 20.1324 17.4818 18.0521C19.5621 15.9718 22.2126 14.5551 25.098 13.9811C27.9835 13.4072 30.9744 13.7018 33.6924 14.8276C36.4105 15.9535 38.7336 17.86 40.3681 20.3062C42.0026 22.7524 42.875 25.6283 42.875 28.5703C42.8706 32.5141 41.302 36.295 38.5134 39.0837C35.7247 41.8723 31.9438 43.4409 28 43.4453Z" fill="#2959A1"/>
<path id="Vector_2" d="M11.375 18.9453V10.1953H9.625V18.0703H8.75V10.1953H7V18.0703H6.125V10.1953H4.375V18.0703H3.5V10.1953H1.75V23.3203C1.75066 23.8631 1.9192 24.3923 2.23251 24.8355C2.54582 25.2786 2.98856 25.6141 3.5 25.7957V46.0703C3.5 46.7665 3.77656 47.4342 4.26884 47.9265C4.76113 48.4188 5.42881 48.6953 6.125 48.6953H7C7.69619 48.6953 8.36387 48.4188 8.85616 47.9265C9.34844 47.4342 9.625 46.7665 9.625 46.0703V25.7957C10.1364 25.6141 10.5792 25.2786 10.8925 24.8355C11.2058 24.3923 11.3743 23.8631 11.375 23.3203V18.9453ZM9.625 23.3203C9.625 23.5524 9.53281 23.7749 9.36872 23.939C9.20462 24.1031 8.98206 24.1953 8.75 24.1953C8.51794 24.1953 8.29538 24.2875 8.13128 24.4516C7.96719 24.6157 7.875 24.8382 7.875 25.0703V46.0703C7.875 46.3024 7.78281 46.5249 7.61872 46.689C7.45462 46.8531 7.23206 46.9453 7 46.9453H6.125C5.89294 46.9453 5.67038 46.8531 5.50628 46.689C5.34219 46.5249 5.25 46.3024 5.25 46.0703V25.0703C5.25 24.8382 5.15781 24.6157 4.99372 24.4516C4.82962 24.2875 4.60706 24.1953 4.375 24.1953C4.14294 24.1953 3.92038 24.1031 3.75628 23.939C3.59219 23.7749 3.5 23.5524 3.5 23.3203V19.8203H9.625V23.3203ZM53.375 9.32031C51.2871 9.32263 49.2854 10.1531 47.8091 11.6294C46.3327 13.1058 45.5023 15.1074 45.5 17.1953V28.5703C45.5 29.2665 45.7766 29.9342 46.2688 30.4265C46.7611 30.9187 47.4288 31.1953 48.125 31.1953V47.8203C48.125 48.0524 48.2172 48.2749 48.3813 48.439C48.5454 48.6031 48.7679 48.6953 49 48.6953H53.375C53.6071 48.6953 53.8296 48.6031 53.9937 48.439C54.1578 48.2749 54.25 48.0524 54.25 47.8203V10.1953C54.25 9.96325 54.1578 9.74069 53.9937 9.57659C53.8296 9.4125 53.6071 9.32031 53.375 9.32031ZM52.5 46.9453H49.875V30.3203C49.875 30.0882 49.7828 29.8657 49.6187 29.7016C49.4546 29.5375 49.2321 29.4453 49 29.4453H48.125C47.8929 29.4453 47.6704 29.3531 47.5063 29.189C47.3422 29.0249 47.25 28.8024 47.25 28.5703V17.1953C47.2518 15.7229 47.7832 14.3003 48.7471 13.1872C49.7109 12.0741 51.043 11.3448 52.5 11.1324V46.9453Z" fill="#2959A1"/>
<path id="Vector_3" d="M49.875 14.5703H48.125V27.6953H49.875V14.5703Z" fill="#2959A1"/>
<path id="Vector_4" d="M28 19.8203C26.2694 19.8203 24.5777 20.3335 23.1388 21.295C21.6998 22.2564 20.5783 23.623 19.9161 25.2218C19.2538 26.8207 19.0805 28.58 19.4181 30.2774C19.7558 31.9747 20.5891 33.5338 21.8128 34.7575C23.0365 35.9812 24.5956 36.8146 26.293 37.1522C27.9903 37.4898 29.7496 37.3165 31.3485 36.6543C32.9473 35.992 34.3139 34.8705 35.2754 33.4316C36.2368 31.9926 36.75 30.3009 36.75 28.5703C36.7475 26.2505 35.8248 24.0263 34.1844 22.3859C32.544 20.7456 30.3199 19.8229 28 19.8203ZM28 35.5703C26.6155 35.5703 25.2622 35.1598 24.111 34.3906C22.9599 33.6214 22.0627 32.5282 21.5328 31.2491C21.003 29.97 20.8644 28.5625 21.1345 27.2047C21.4046 25.8468 22.0713 24.5995 23.0503 23.6206C24.0292 22.6416 25.2765 21.9749 26.6344 21.7048C27.9922 21.4347 29.3997 21.5733 30.6788 22.1032C31.9579 22.633 33.0511 23.5302 33.8203 24.6813C34.5895 25.8325 35 27.1858 35 28.5703C34.9979 30.4262 34.2598 32.2055 32.9475 33.5178C31.6351 34.8301 29.8559 35.5682 28 35.5703Z" fill="#2959A1"/>
</g>
</svg>
