<svg width="245" height="82" viewBox="0 0 245 82" fill="none" xmlns="http://www.w3.org/2000/svg">
<g id="iru_veli_white 1" clip-path="url(#clip0_517_41)">
<g id="Group">
<path id="Vector" d="M70.2089 28.7669C68.1617 28.0256 65.8674 28.5904 63.8202 29.0139C61.8083 29.4375 59.6905 30.0023 57.608 29.5081C55.6667 29.0492 54.1136 27.1079 54.043 25.096C53.9724 23.1547 54.996 21.3899 56.6197 20.3662C56.9374 20.1898 57.6433 19.7662 58.1375 19.6603C58.1375 19.6603 56.8315 20.6133 56.7962 22.4841C56.7609 23.5077 57.3962 24.6019 58.2786 25.096C58.3845 25.1666 58.4904 25.2019 58.5963 25.2372C60.7494 26.3667 62.9025 24.6372 63.9967 22.6958C64.3497 22.0605 64.6673 21.3899 64.8791 20.7192C65.5498 18.9191 65.8321 17.0131 65.5498 15.0717C64.9497 10.8714 60.82 7.76532 56.5138 9.35367C54.4666 10.0949 53.09 12.0009 51.784 13.6599C50.5134 15.2835 49.2427 17.0484 47.3367 18.0014C45.5365 18.8838 43.101 18.4249 41.7598 16.9072C40.4538 15.46 40.1008 13.4481 40.7009 11.6127C40.8068 11.2597 41.0891 10.5185 41.4068 10.0949C41.4068 10.0949 40.9832 11.648 42.1833 13.1304C42.8187 13.9069 44.0188 14.3658 45.0071 14.1893C45.113 14.154 45.2541 14.154 45.36 14.1187C47.7249 13.5893 48.2544 10.8714 47.8308 8.68303C47.6896 7.9771 47.4778 7.27117 47.2308 6.60053C46.5601 4.8004 45.5718 3.14145 44.1246 1.83547C40.9832 -0.988264 35.8299 -0.705891 33.5356 3.28264C32.4414 5.15336 32.6179 7.51824 32.6885 9.60075C32.7591 11.648 32.9356 13.8364 32.0885 15.7777C31.3119 17.6131 29.1235 18.8132 27.1469 18.5308C25.2056 18.2484 23.6526 16.9425 22.9466 15.1776C22.8054 14.86 22.5584 14.0834 22.5231 13.554C22.5231 13.554 23.229 15.0011 25.0644 15.3894C26.0527 15.6012 27.2528 15.1423 27.8882 14.4011C27.9588 14.2952 28.0294 14.2246 28.0999 14.1187C29.5824 12.1774 28.2411 9.77723 26.5116 8.36537C25.9468 7.90651 25.3468 7.48295 24.7115 7.12998C23.0525 6.17697 21.2171 5.54163 19.2758 5.47103C15.0402 5.32985 11.2634 8.85952 12.0752 13.3775C12.4635 15.5306 14.0871 17.2248 15.499 18.7779C16.8756 20.2957 18.3933 21.884 19.0287 23.8959C19.5934 25.8019 18.711 28.1315 17.0168 29.1904C15.3578 30.214 13.3459 30.214 11.6164 29.3316C11.2987 29.1551 10.5928 28.7669 10.2398 28.3786C10.2398 28.3786 11.7223 29.0492 13.3459 28.1668C14.2283 27.6727 14.8637 26.5785 14.8637 25.5902C14.8637 25.4843 14.8637 25.3431 14.8284 25.2372C14.7225 22.8017 12.1458 21.8134 9.92214 21.8487C9.18091 21.8487 8.47497 21.9546 7.76904 22.0605C5.86301 22.4135 4.06288 23.0841 2.54512 24.2842C-0.878658 26.8255 -1.4787 31.9436 2.05097 34.9085C3.70992 36.2851 6.07479 36.5674 8.122 36.8498C10.381 37.1675 12.8165 37.3793 14.6872 38.9323C15.6402 39.7441 16.3461 41.4737 16.2402 42.7091C15.9932 45.1798 14.2283 46.9447 11.934 47.4388C11.5811 47.5094 10.7693 47.6506 10.2398 47.58C10.2398 47.58 11.7929 47.1565 12.4635 45.3916C12.8165 44.4386 12.6047 43.2032 11.9693 42.4267C11.8988 42.3208 11.8282 42.2502 11.7223 42.1796C10.0633 40.3795 7.45136 41.2972 5.79242 42.7444C5.26297 43.2032 4.73352 43.7327 4.27466 44.2974C3.03928 45.7799 2.12156 47.4741 1.698 49.3449C0.815586 53.4746 3.63932 57.8161 8.26319 57.8161C10.4163 57.8161 12.3929 56.5101 14.1577 55.4159C16.0991 54.2158 18.111 52.8039 20.5112 52.8039C21.7465 52.8039 23.4055 53.651 24.1114 54.6747C25.5233 56.7219 25.3115 59.2279 23.8643 61.0987C23.6526 61.381 23.1231 61.9811 22.6642 62.2987C22.6642 62.2987 23.582 60.9575 22.9819 59.1926C22.6642 58.2396 21.6759 57.4278 20.6876 57.2513C20.5817 57.216 20.4406 57.216 20.3347 57.216C17.9345 56.8983 16.4873 59.2632 16.1344 61.4516C16.0285 62.1576 15.9579 62.8988 15.9579 63.64C15.9579 65.5813 16.3461 67.4521 17.2638 69.1816C19.2405 72.9231 24.182 74.4055 27.7117 71.4406C29.3706 70.064 30.0413 67.7697 30.6766 65.7931C31.2413 64.0283 31.7708 62.1576 32.9356 60.6751C34.3828 58.8397 37.3124 58.2043 39.289 59.475C40.8068 60.428 41.6892 62.087 41.7598 63.8871C41.7598 64.2401 41.7598 65.0519 41.6186 65.5813C41.6186 65.5813 41.4774 63.9577 39.8537 63.0047C39.0066 62.4752 37.7359 62.4752 36.8535 62.9694C36.7476 63.04 36.6417 63.1106 36.5359 63.1812C34.4886 64.4871 34.9122 67.205 36.077 69.111C36.4653 69.7464 36.8888 70.3111 37.3477 70.8758C38.5831 72.3583 40.1008 73.5584 41.901 74.2643C45.8189 75.8527 50.584 73.8055 51.3605 69.2875C51.7487 67.1344 50.7957 64.9813 50.0192 63.04C49.3486 61.3457 48.5367 59.5456 48.4661 57.7102C48.3603 55.3806 50.231 53.0157 52.5606 52.698C54.3254 52.451 56.0902 53.1569 57.2903 54.4982C57.5374 54.7805 58.0316 55.3806 58.2433 55.8747C58.2433 55.8747 57.0785 54.7452 55.2431 55.0276C54.2548 55.1688 53.2665 55.9806 52.9135 56.9336C52.5253 58.0278 52.7371 59.2985 53.5489 60.1456C54.2195 60.8516 55.1725 61.4516 56.1961 61.4516C57.0433 61.4516 57.9963 61.134 58.5963 60.5339C58.914 60.1809 59.2669 59.7221 59.4081 59.2632C60.1847 56.9336 58.6316 54.5688 56.8668 53.1569C56.3373 52.7333 55.7726 52.3451 55.1725 52.0627C53.7254 51.3215 52.0664 51.0038 50.4428 51.2156C49.1368 51.3921 47.8308 51.9215 46.8425 52.7686C42.6422 56.4395 45.5012 61.2751 47.0543 65.4049C47.8661 67.558 47.7955 69.9581 45.9954 71.6524C42.9246 74.5114 38.689 72.2524 37.03 69.0051C37.5948 69.3228 38.2301 69.464 38.8301 69.3934C39.289 69.3581 39.8537 69.1816 40.2773 68.9345C42.3598 67.6638 42.7128 64.8401 42.2539 62.6164C42.1127 61.9811 41.9363 61.2751 41.6892 60.6751C41.0538 59.1573 39.9949 57.8867 38.6184 57.0042C37.5242 56.2983 36.1829 55.8394 34.8416 55.8747C29.2647 55.9806 28.347 61.5575 26.8999 65.6872C26.1233 67.8756 24.535 69.6758 22.0642 69.7816C17.8639 69.9934 16.0638 65.546 16.9109 61.9811C17.158 62.5811 17.5462 63.1106 18.0404 63.4635C18.4286 63.7106 18.9581 63.9577 19.417 64.0283C21.8524 64.3812 23.8996 62.4399 24.9938 60.4633C25.3115 59.8986 25.5939 59.2279 25.8057 58.5926C26.2998 57.0395 26.3351 55.3453 25.8057 53.7922C25.3821 52.5569 24.6762 51.3215 23.6526 50.5096C19.3111 46.98 15.0402 50.6861 11.2634 52.9098C9.28679 54.1099 6.92192 54.4276 4.9453 52.9451C1.59211 50.439 3.07457 45.8505 6.0042 43.6621C5.79242 44.2621 5.75713 44.9328 5.93361 45.5328C6.0748 45.9917 6.32187 46.5211 6.63954 46.8741C8.26319 48.7095 11.0869 48.5683 13.2047 47.7565C13.8048 47.5094 14.4401 47.227 15.0049 46.8388C16.3814 45.9564 17.4756 44.6857 18.0757 43.1679C18.5698 41.9678 18.7816 40.556 18.5345 39.25C17.4756 33.779 11.8282 33.8496 7.48666 33.1437C5.19238 32.7554 3.18046 31.52 2.61571 29.1198C1.6627 25.0254 5.72183 22.4841 9.39269 22.6958C8.86324 23.0135 8.40438 23.5077 8.1573 24.0724C7.98082 24.496 7.83963 25.0607 7.83963 25.5549C7.91022 27.9903 10.1692 29.7199 12.3223 30.4258C12.9577 30.6376 13.6283 30.8141 14.2989 30.8847C15.9226 31.0964 17.5815 30.8494 19.0287 30.0728C20.1935 29.4375 21.2524 28.5198 21.8877 27.3903C24.6056 22.5193 20.2288 18.9191 17.3697 15.6012C15.852 13.8364 15.1108 11.5774 16.2402 9.35367C18.1463 5.61222 22.9113 6.28286 25.5586 8.78893C24.9232 8.68303 24.2879 8.75363 23.7231 9.036C23.2996 9.24778 22.8407 9.60075 22.5231 9.95372C21.0053 11.8597 21.6406 14.6482 22.8054 16.5542C23.1584 17.119 23.5467 17.6837 24.0055 18.1779C25.135 19.3779 26.5469 20.2251 28.1352 20.578C29.4059 20.8604 30.8178 20.8251 32.0532 20.331C37.2771 18.319 36.2182 12.7775 36.1476 8.40066C36.1123 6.07108 36.9947 3.88268 39.289 2.89437C43.1716 1.23543 46.3483 4.83569 46.8072 8.43596C46.3836 7.9771 45.8542 7.58884 45.2542 7.44765C44.7953 7.34176 44.1952 7.30646 43.7364 7.37706C41.3362 7.87121 40.0655 10.4126 39.7126 12.6363C39.6067 13.3069 39.5714 13.9775 39.6067 14.6482C39.7126 16.2718 40.242 17.8602 41.2303 19.1662C42.0421 20.1898 43.1363 21.0722 44.3717 21.4957C49.6662 23.2959 52.4194 18.3896 55.1725 15.0011C56.655 13.201 58.7375 12.0715 61.1024 12.7775C65.1262 14.0128 65.2674 18.8132 63.2908 21.884C63.2908 21.2487 63.079 20.6133 62.726 20.1192C62.4436 19.7309 62.0201 19.3426 61.5965 19.0956C59.4434 17.9308 56.8315 19.0603 55.1372 20.5427C54.6431 20.9663 54.1489 21.4957 53.7607 22.0252C52.7723 23.3312 52.1723 24.8842 52.137 26.5079C52.1017 27.8139 52.3488 29.1904 53.0547 30.3199C55.949 35.1203 61.2083 33.1084 65.5145 32.2965C67.7735 31.873 70.1383 32.3318 71.4796 34.4143C73.7739 37.944 70.7737 41.7561 67.244 42.815C67.3499 42.6738 67.4205 42.5326 67.4911 42.3914C67.7382 41.8619 67.8793 41.2619 67.844 40.6972C67.8087 40.0971 67.5617 39.5677 67.1734 39.0735C66.6087 38.1911 65.5851 37.8381 64.5967 37.8381C62.6907 37.8028 60.82 39.8147 61.2789 41.7208C61.9495 44.5092 64.985 44.6504 67.244 43.8033C67.9146 43.5562 68.5853 43.2385 69.2206 42.8503C70.8796 41.8972 72.3267 40.6266 73.3503 38.9676C75.7152 35.3674 74.5504 30.3552 70.2089 28.7669Z" fill="#99792E"/>
<path id="Vector_2" d="M68.197 52.4509C67.1028 50.5802 64.985 49.5213 63.1496 48.533C61.3142 47.5799 59.3729 46.6269 58.1022 44.9327C56.9021 43.3443 56.9727 40.8383 58.2081 39.2499C59.1611 38.0498 60.6435 37.2733 62.1613 37.238C62.7966 37.238 63.432 37.3086 64.032 37.4498C64.2085 37.4851 64.5262 37.591 64.5968 37.6263C62.6908 37.6263 61.1377 39.1087 61.1377 40.9089C61.1377 42.709 62.6908 44.1915 64.5968 44.1915C66.5028 44.1915 68.0559 42.709 68.0559 40.9089C68.0559 40.7677 68.0559 40.6265 68.0206 40.5206C68.0206 40.4147 67.9853 40.3088 67.9853 40.1676L67.95 40.0264L67.9147 39.9206C67.9147 39.85 67.8794 39.7441 67.8441 39.6382C67.5264 38.544 66.644 37.7675 65.6557 37.3086C65.1262 37.0615 64.5615 36.8144 63.9967 36.7086C61.7377 36.2144 59.1258 36.6027 57.2198 37.9439C56.7256 38.2969 56.2315 38.7205 55.8432 39.144C54.9608 40.1323 54.2901 41.3677 54.0784 42.6384C53.1959 48.1447 58.5257 50.0154 62.3378 52.1685C63.2908 52.698 64.1379 53.4392 64.7733 54.3216C65.1615 54.9217 65.4792 55.557 65.5498 56.2629C65.691 57.3571 65.5145 58.4513 65.0203 59.4043C64.3144 60.7456 62.9025 61.5574 61.4554 61.8398C60.6788 61.981 59.8317 62.0163 59.0552 61.9104C58.3846 61.8398 57.6786 61.6633 57.0433 61.381C58.5257 60.9927 59.6199 59.722 59.6199 58.169C59.6199 56.3335 58.0669 54.8511 56.1609 54.8511C54.2548 54.8511 52.7018 56.3335 52.7018 58.169C52.7018 59.1926 53.2312 60.075 53.9372 60.7456C54.749 61.5221 55.8079 61.981 56.8668 62.2987C58.2787 62.7222 59.7964 62.934 61.2789 62.8634C61.7377 62.8281 62.1966 62.7928 62.6202 62.7222C63.1143 62.6516 63.6085 62.5105 64.0673 62.3693C68.1617 61.0633 70.4913 56.4394 68.197 52.4509Z" fill="#FF5000"/>
</g>
<g id="Group_2">
<path id="Vector_3" d="M120.578 35.4022V35.967C119.766 35.967 119.201 36.1787 118.884 36.6376C118.566 37.0965 118.425 37.873 118.425 39.0025V50.8622C118.425 51.9917 118.566 52.8035 118.884 53.2271C119.201 53.6506 119.766 53.8977 120.578 53.8977V54.4624H113.73V53.8977C114.578 53.8977 115.142 53.6859 115.425 53.2624C115.742 52.8388 115.884 52.027 115.884 50.8975V39.0378C115.884 37.873 115.742 37.0612 115.425 36.6376C115.142 36.214 114.542 36.0023 113.73 36.0023V35.4375H120.578V35.4022Z" fill="#99792E"/>
<path id="Vector_4" d="M128.802 45.6383H127.249V50.8622C127.249 51.9917 127.425 52.7682 127.743 53.2271C128.061 53.6859 128.626 53.8977 129.437 53.8977V54.4624H122.59V53.8977C123.437 53.8977 124.002 53.6859 124.284 53.2271C124.566 52.7682 124.743 51.9917 124.743 50.8622V38.9319C124.743 37.8024 124.602 37.0259 124.319 36.6023C124.037 36.1787 123.437 35.967 122.59 35.967V35.4022H130.39C132.332 35.4022 133.849 35.8611 135.014 36.8141C136.179 37.7318 136.744 38.9319 136.744 40.3791C136.744 42.7086 135.438 44.2617 132.826 45.0382C133.391 45.3912 133.955 45.9206 134.52 46.556C135.085 47.1913 135.791 48.2855 136.673 49.768C137.662 51.4269 138.438 52.5211 139.003 53.0153C139.568 53.5447 140.132 53.8271 140.732 53.8624V54.4271H136.85C136.038 53.4741 135.085 52.0623 133.955 50.1915C132.755 48.2149 131.802 46.9796 131.096 46.4501C130.39 45.8854 129.649 45.6383 128.802 45.6383ZM129.261 36.1435H127.249V44.8264H129.579C130.99 44.8264 132.085 44.4382 132.861 43.6264C133.638 42.8145 134.061 41.7556 134.061 40.4497C134.061 39.179 133.638 38.1201 132.755 37.3435C131.873 36.5317 130.708 36.1435 129.261 36.1435Z" fill="#99792E"/>
<path id="Vector_5" d="M155.557 50.4386V39.0025C155.557 37.873 155.416 37.0965 155.098 36.6729C154.816 36.2493 154.286 36.0023 153.51 35.967V35.4022H160.216V35.967C159.404 35.967 158.84 36.1787 158.522 36.6376C158.204 37.0965 158.063 37.873 158.063 39.0025V50.8622C158.063 51.9917 158.204 52.7682 158.522 53.1918C158.84 53.6506 159.404 53.8624 160.216 53.8624V54.4271H155.522V51.7799C153.722 53.8624 151.639 54.9213 149.168 54.9213C147.156 54.9213 145.568 54.3213 144.439 53.1212C143.274 51.9211 142.709 50.3327 142.709 48.3561V39.0025C142.709 37.873 142.568 37.0612 142.25 36.6376C141.968 36.1787 141.368 35.967 140.521 35.967V35.4022H147.403V35.967C146.556 35.967 145.956 36.1787 145.674 36.6023C145.356 37.0259 145.215 37.8024 145.215 38.9672V48.6032C145.215 50.1562 145.639 51.3916 146.486 52.2741C147.333 53.1565 148.533 53.6153 150.051 53.6153C152.38 53.6153 154.216 52.5564 155.557 50.4386Z" fill="#99792E"/>
<path id="Vector_6" d="M188.807 35.4022V36.0023C187.395 36.0023 186.265 37.2377 185.348 39.7084L179.735 54.6742H179.206L173.311 39.2496C172.747 37.8377 172.288 36.92 171.899 36.567C171.511 36.1788 170.911 36.0023 170.17 35.967V35.4022H177.088V35.967C175.994 35.967 175.429 36.3905 175.429 37.2377C175.429 37.52 175.5 37.8377 175.641 38.1907L180.3 50.4739L184.712 38.6142C184.889 38.1201 184.995 37.6612 184.995 37.3082C184.995 36.4258 184.43 35.967 183.3 35.967V35.4022H188.807Z" fill="#99792E"/>
<path id="Vector_7" d="M202.466 42.6027H203.031V47.2266H202.466C202.255 46.4148 202.007 45.9206 201.725 45.7089C201.443 45.4971 200.807 45.3912 199.819 45.3912H195.089V52.2034C195.089 52.6623 195.195 53.0153 195.407 53.1918C195.619 53.4035 195.972 53.4741 196.501 53.4741H199.819C201.019 53.4741 201.831 53.4035 202.29 53.2624C202.749 53.1212 203.137 52.8741 203.455 52.5564C203.772 52.2034 204.09 51.6387 204.443 50.8622H205.008L204.125 54.4271H190.43V53.8624C191.277 53.8624 191.842 53.6506 192.16 53.1918C192.442 52.7682 192.583 51.9917 192.583 50.8622V38.9672C192.583 37.8024 192.442 37.0259 192.124 36.567C191.807 36.1082 191.242 35.9317 190.43 35.9317V35.3669H204.125V38.5436H203.772C203.561 37.6259 203.313 37.0259 202.925 36.7435C202.572 36.4611 201.76 36.2846 200.56 36.2846H195.089V44.4382H200.419C201.16 44.4382 201.655 44.297 201.902 44.0499C202.149 43.8381 202.325 43.344 202.466 42.6027Z" fill="#99792E"/>
<path id="Vector_8" d="M222.021 50.2621H222.586L221.421 54.4271H207.62V53.8624C208.396 53.8624 208.961 53.6153 209.279 53.1212C209.596 52.627 209.773 51.8152 209.773 50.6857V38.7201C209.773 37.6965 209.632 36.9906 209.314 36.567C208.996 36.1435 208.432 35.967 207.62 35.967V35.4022H214.432V35.967C213.691 35.967 213.126 36.214 212.808 36.6729C212.491 37.1318 212.314 37.9083 212.314 38.9672V51.674C212.314 52.3799 212.455 52.8741 212.773 53.1212C213.055 53.3683 213.655 53.5094 214.467 53.5094H218.244C219.409 53.5094 220.221 53.2977 220.68 52.9094C221.174 52.4858 221.597 51.6034 222.021 50.2621Z" fill="#99792E"/>
<path id="Vector_9" d="M230.563 35.4022V35.967C229.751 35.967 229.186 36.1787 228.868 36.6376C228.551 37.0965 228.409 37.873 228.409 39.0025V50.8622C228.409 51.9917 228.551 52.8035 228.868 53.2271C229.186 53.6506 229.751 53.8977 230.563 53.8977V54.4624H223.715V53.8977C224.562 53.8977 225.127 53.6859 225.409 53.2624C225.727 52.8388 225.868 52.027 225.868 50.8975V39.0378C225.868 37.873 225.727 37.0612 225.409 36.6376C225.127 36.214 224.527 36.0023 223.715 36.0023V35.4375H230.563V35.4022Z" fill="#99792E"/>
</g>
<g id="Group_3">
<path id="Vector_10" d="M105.365 25.8367C104.589 25.8367 103.883 25.7662 103.283 25.5897C102.683 25.4132 102.083 25.2014 101.447 24.8837C101.165 24.7779 101.059 24.7778 101.059 24.7778C100.953 24.7778 100.953 24.8131 100.953 24.8131C100.918 24.8837 100.847 25.0955 100.741 25.5897L100.706 25.8015H100V20.6481H100.671L100.706 20.8599C100.988 22.1659 101.553 23.1189 102.365 23.7895C103.177 24.4602 104.2 24.7778 105.365 24.7778C106.248 24.7778 106.953 24.6014 107.483 24.2837C108.012 23.966 108.365 23.5778 108.542 23.1189C108.754 22.66 108.859 22.1659 108.859 21.707C108.859 20.754 108.577 19.9422 107.977 19.3422C107.377 18.7068 106.424 18.0362 105.153 17.3655C104.236 16.8714 103.6 16.4831 103.177 16.236C102.718 15.9537 102.294 15.6007 101.835 15.1771C101.377 14.7183 100.988 14.1888 100.741 13.5888C100.459 12.9887 100.318 12.2828 100.318 11.471C100.318 10.5533 100.565 9.67086 101.059 8.82374C101.553 7.97662 102.224 7.30597 103.106 6.81182C104.659 5.9294 106.671 5.82351 108.683 6.49415C108.824 6.56475 108.965 6.56475 109.142 6.56475C109.212 6.56475 109.354 6.56475 109.46 6.21178L109.495 6H110.236V10.4827H109.53L109.495 10.2356C109.389 9.38848 109.001 8.64725 108.401 8.04721C107.765 7.41186 106.989 7.12949 105.965 7.12949C105.295 7.12949 104.694 7.27068 104.2 7.58835C103.706 7.90602 103.283 8.32959 103 8.85904C102.718 9.38849 102.577 10.0238 102.577 10.7298C102.577 11.2592 102.647 11.7534 102.824 12.1769C103 12.6005 103.247 12.9535 103.565 13.2711C103.918 13.5888 104.306 13.9065 104.765 14.1888C105.224 14.4712 105.895 14.8595 106.671 15.3183C108.048 16.0596 109.142 16.8361 109.883 17.5773C110.695 18.3538 111.083 19.448 111.083 20.8246C111.083 21.6364 110.871 22.4483 110.448 23.2248C110.024 24.0013 109.354 24.6367 108.507 25.1308C107.695 25.5897 106.6 25.8367 105.365 25.8367Z" fill="#99792E"/>
<path id="Vector_11" d="M122.484 25.9073C121.143 25.9073 119.872 25.5897 118.813 24.919C117.719 24.2837 116.907 23.4365 116.413 22.4835C116.06 21.8129 115.813 21.0717 115.707 20.3657C115.601 19.6598 115.566 18.8833 115.566 18.142V8.9296C115.566 8.43545 115.46 8.01188 115.284 7.65892C115.107 7.37654 114.613 7.16476 113.907 7.12947L113.66 7.09418V6.38824H120.013V7.09418L119.766 7.12947C118.99 7.23536 118.531 7.41185 118.319 7.72952C118.107 8.08248 118.001 8.47074 118.001 8.9296V17.9656C118.001 19.7657 118.178 21.107 118.531 21.9541C118.919 22.8365 119.484 23.5424 120.225 24.0366C120.966 24.5308 121.849 24.7778 122.802 24.7778C123.19 24.7778 123.684 24.7072 124.249 24.5661C124.814 24.4249 125.343 24.1778 125.802 23.8601C127.249 22.8718 127.99 21.2482 127.99 19.0245V8.9296C127.99 8.47074 127.884 8.04718 127.673 7.69422C127.496 7.37655 126.967 7.20006 126.226 7.12947L125.978 7.09418V6.38824H132.473V7.12947H132.226C131.485 7.16476 130.991 7.37655 130.814 7.69422C130.602 8.08248 130.496 8.47074 130.496 8.8943V22.9071C130.496 23.3307 130.567 23.6836 130.708 23.9307C130.849 24.1778 131.026 24.319 131.273 24.4249C131.555 24.5307 131.873 24.6366 132.297 24.7072L132.508 24.7425V25.4132H128.061V23.013C127.532 23.8954 126.826 24.566 125.978 25.0249C124.849 25.5897 123.684 25.9073 122.484 25.9073Z" fill="#99792E"/>
<path id="Vector_12" d="M152.839 25.872H152.345L152.275 25.8014L138.544 10.4827H138.509V21.1423C138.509 22.06 138.544 22.7659 138.615 23.2248C138.685 23.7542 138.826 24.0013 138.897 24.1072C139.144 24.4602 139.638 24.6719 140.309 24.7072H140.556V25.4132H135.403V24.7072H135.65C136.109 24.6719 136.497 24.6013 136.709 24.4249C136.956 24.2837 137.097 23.966 137.203 23.5072C137.309 23.013 137.379 22.2365 137.379 21.2129V9.24727L136.85 8.64723C136.32 8.04719 135.932 7.69422 135.614 7.51773C135.297 7.37655 134.944 7.23536 134.485 7.16477L134.273 7.12947V6.42353H138.121L151.71 21.6364H151.745V10.4121C151.745 9.52965 151.71 8.85901 151.639 8.43545C151.569 8.04719 151.427 7.76481 151.145 7.51773C150.898 7.30595 150.474 7.16476 149.874 7.12947H149.627V6.38824H154.781V7.09418L154.569 7.12947C154.11 7.20006 153.792 7.27066 153.545 7.37655C153.333 7.48244 153.157 7.65892 153.051 7.9413C152.91 8.25897 152.839 8.75312 152.839 9.38847V25.872Z" fill="#99792E"/>
<path id="Vector_13" d="M169.605 25.8367C168.829 25.8367 168.123 25.7661 167.523 25.5896C166.923 25.4132 166.323 25.2014 165.687 24.8837C165.405 24.7778 165.299 24.7778 165.299 24.7778C165.193 24.7778 165.193 24.8131 165.193 24.8131C165.158 24.8837 165.087 25.0955 164.981 25.5896L164.946 25.8014H164.275V20.6481H164.946L164.981 20.8599C165.264 22.1659 165.828 23.1189 166.64 23.7895C167.452 24.4601 168.476 24.7778 169.64 24.7778C170.523 24.7778 171.229 24.6013 171.758 24.2837C172.288 23.966 172.641 23.5777 172.817 23.1189C173.029 22.66 173.135 22.1659 173.135 21.707C173.135 20.754 172.852 19.9422 172.252 19.3421C171.652 18.7068 170.699 18.0361 169.429 17.3655C168.511 16.8714 167.876 16.4831 167.452 16.236C166.993 15.9536 166.57 15.6007 166.111 15.1771C165.652 14.7183 165.264 14.1888 165.017 13.5888C164.734 12.9887 164.593 12.2828 164.593 11.471C164.593 10.5532 164.84 9.67083 165.334 8.82371C165.828 7.97659 166.499 7.30594 167.382 6.81179C168.935 5.92937 170.946 5.82348 172.958 6.49412C173.1 6.56471 173.241 6.56472 173.417 6.56472C173.488 6.56472 173.629 6.56472 173.735 6.21175L173.77 5.99997H174.441V10.4826H173.735L173.7 10.2356C173.594 9.38845 173.205 8.64722 172.605 8.04717C172.005 7.41183 171.158 7.12946 170.17 7.12946C169.499 7.12946 168.935 7.27065 168.405 7.58832C167.911 7.90599 167.487 8.32955 167.205 8.85901C166.923 9.38846 166.781 10.0238 166.781 10.7297C166.781 11.2592 166.852 11.7533 167.029 12.1769C167.205 12.6005 167.452 12.9534 167.77 13.2711C168.087 13.5888 168.511 13.9064 168.97 14.1888C169.429 14.4712 170.099 14.8594 170.876 15.3183C172.252 16.0595 173.311 16.8361 174.088 17.5773C174.9 18.3538 175.288 19.448 175.288 20.8246C175.288 21.6717 175.076 22.4482 174.653 23.2248C174.229 24.0013 173.558 24.6366 172.711 25.1308C171.935 25.5896 170.876 25.8367 169.605 25.8367Z" fill="#99792E"/>
<path id="Vector_14" d="M184.324 25.4132H177.935V24.6719H178.182C178.676 24.6719 179.065 24.5308 179.418 24.2484C179.735 24.0013 179.912 23.5425 179.912 22.8718V8.82373C179.912 8.15309 179.771 7.69423 179.453 7.44716C179.1 7.20008 178.712 7.05889 178.218 7.05889H177.97V6.31766H184.359V7.05889H184.112C183.618 7.05889 183.194 7.20007 182.877 7.48244C182.559 7.72952 182.383 8.18839 182.383 8.82373V22.9071C182.383 23.5425 182.559 23.966 182.912 24.2484C183.265 24.5308 183.689 24.6719 184.112 24.6719H184.359L184.324 25.4132Z" fill="#99792E"/>
<path id="Vector_15" d="M198.513 25.4132H192.124V24.7072H192.372C192.901 24.7072 193.325 24.5307 193.607 24.2837C193.889 24.0013 194.03 23.5777 194.03 22.9777V15.9536L189.371 8.96489C188.877 8.22366 188.454 7.7648 188.101 7.51772C187.748 7.30594 187.254 7.16476 186.618 7.16476H186.371V6.42352H193.466V7.16476H193.219C192.654 7.20005 192.266 7.30594 192.124 7.48242C191.983 7.6942 191.877 7.90599 191.877 8.08247C191.877 8.22366 191.948 8.50603 192.336 9.07078L195.972 14.4359C195.972 14.4359 195.972 14.4359 196.007 14.4359L199.184 9.63553C199.784 8.71781 199.925 8.25895 199.925 8.01188C199.925 7.80009 199.89 7.62361 199.784 7.51772C199.678 7.41183 199.572 7.30595 199.466 7.27065C199.325 7.23536 199.184 7.20005 199.043 7.16476L198.831 7.12946V6.42352H204.055V7.16476H203.808C203.314 7.16476 202.855 7.30594 202.466 7.51772C202.043 7.7648 201.725 8.01188 201.513 8.25896C201.266 8.50603 201.019 8.859 200.737 9.21197L196.466 15.636V22.9777C196.466 23.5777 196.642 23.966 196.96 24.2837C197.313 24.566 197.737 24.7425 198.231 24.7425H198.478V25.4132H198.513Z" fill="#99792E"/>
<path id="Vector_16" d="M209.067 16.6949H214.185C214.185 16.6949 214.185 16.6949 214.185 16.6596L211.538 8.9649H211.502L209.067 16.6949ZM221.174 25.4132H214.609V24.6719H214.856C215.456 24.6719 215.879 24.6013 216.197 24.4955C216.267 24.4602 216.515 24.3896 216.515 23.7895C216.515 23.5424 216.444 23.1895 216.303 22.7306C216.267 22.66 216.232 22.6247 216.232 22.5541L214.644 17.8597H208.643L207.232 22.2012C207.055 22.8012 206.949 23.2601 206.949 23.613C206.949 24.0366 207.055 24.319 207.232 24.4249C207.443 24.566 207.761 24.6366 208.185 24.6366H208.432V25.3779H203.561V24.6719L203.808 24.6366C204.372 24.6013 204.796 24.3896 205.114 24.0013C205.467 23.613 205.784 23.013 206.031 22.2012L211.326 6.10587H213.02L218.632 22.1306C218.915 22.9071 219.197 23.5072 219.444 23.8601C219.727 24.2484 219.938 24.4249 220.08 24.4602C220.291 24.5308 220.574 24.6013 220.927 24.6366L221.174 24.6719V25.4132Z" fill="#99792E"/>
<path id="Vector_17" d="M232.716 25.8367L226.715 10.1297H226.68L226.08 22.06C226.045 22.7306 226.08 23.2954 226.186 23.6483C226.292 24.0013 226.433 24.2131 226.645 24.3543C226.892 24.4955 227.245 24.6366 227.739 24.7072L227.951 24.7425V25.4132H222.833V24.7072H223.08C223.609 24.7072 223.997 24.5661 224.28 24.3543C224.562 24.1072 224.739 23.8248 224.809 23.4366C224.915 23.0483 224.986 22.4835 225.021 21.7776L225.762 8.25897C225.762 8.25897 225.727 8.22367 225.656 8.15308C225.55 8.04719 225.445 7.906 225.303 7.80011C225.162 7.69422 225.056 7.58833 224.915 7.51773C224.668 7.34125 224.421 7.27066 224.28 7.23536C224.068 7.20007 223.786 7.16477 223.433 7.16477H223.186V6.45883H227.915L233.457 21.0717H233.492L239.104 6.45883H243.411V7.16477L243.164 7.20006C242.811 7.23536 242.564 7.27065 242.422 7.30595C242.316 7.34125 242.175 7.41184 242.034 7.51773C241.716 7.76481 241.61 7.90599 241.575 8.01189C241.54 8.11778 241.469 8.36485 241.469 8.9296V9.0002V9.07079V9.14138L242.105 22.8718C242.105 23.4013 242.246 23.8601 242.493 24.2484C242.705 24.6013 243.199 24.7425 243.975 24.7778H244.222V25.4838H237.693V24.7778L237.94 24.7425C238.646 24.6719 239.14 24.4602 239.352 24.1778C239.599 23.8601 239.704 23.3307 239.669 22.6247L239.069 9.60024C239.069 9.60024 239.034 9.56494 239.034 9.60024L232.716 25.8367C232.751 25.872 232.716 25.872 232.716 25.8367Z" fill="#99792E"/>
</g>
<g id="Group_4">
<path id="Vector_18" d="M144.756 64.7338C143.839 64.7691 143.486 65.3692 143.592 66.3928L144.121 72.9227C144.227 74.2286 144.439 74.6169 145.427 74.7228V75.0405H141.615V74.7228C142.497 74.5816 142.78 74.1933 142.709 73.1344L142.18 66.2869H142.144L138.509 75.0052H138.226L134.697 66.2869H134.661L134.061 72.8168C133.956 73.8757 134.344 74.511 135.438 74.7228V75.0405H132.155V74.7228C133.214 74.5816 133.391 73.9463 133.497 72.7815L134.132 65.5103C133.744 65.0515 133.355 64.875 132.755 64.7691V64.4514H135.438L138.826 72.7815L142.25 64.4514H144.756V64.7338Z" fill="#99792E"/>
<path id="Vector_19" d="M152.839 70.699H149.415L148.709 72.8168C148.357 73.8404 148.18 74.6522 149.274 74.6522V74.9699H146.556V74.6522C147.545 74.511 147.792 73.9816 148.109 72.9932L151.039 64.275H152.133L155.204 73.3815C155.522 74.3698 155.769 74.6522 156.722 74.6522V74.9699H152.98V74.6522C153.686 74.6522 154.039 74.3345 153.828 73.6286L152.839 70.699ZM151.145 65.5809H151.11L149.627 70.0636H152.592L151.145 65.5809Z" fill="#99792E"/>
<path id="Vector_20" d="M165.758 75.0052H158.098V74.6875C158.946 74.6875 159.298 74.2286 159.298 72.9227V66.2869C159.298 65.0515 158.946 64.7691 158.098 64.7691V64.4514H161.875V64.7691C160.993 64.7691 160.71 65.2986 160.71 66.4281V73.4874C160.71 74.3345 161.028 74.511 161.91 74.511H164.028C165.299 74.511 165.652 74.2286 166.111 72.7109H166.428L165.758 75.0052Z" fill="#99792E"/>
<path id="Vector_21" d="M168.476 66.428C168.476 65.1574 168.158 64.7338 167.276 64.7338V64.4161H172.182C176.241 64.4161 178.147 67.134 178.147 69.8871C178.147 72.5344 176.453 75.0052 172.323 75.0052H167.311V74.6875C168.158 74.6875 168.511 74.3345 168.511 72.9932L168.476 66.428ZM169.888 72.6403C169.888 74.2992 170.241 74.5816 171.229 74.5816H172.323C174.935 74.5816 176.523 72.7815 176.523 69.8871C176.523 67.3458 175.253 64.8044 171.9 64.8044H169.888V72.6403Z" fill="#99792E"/>
<path id="Vector_22" d="M182.312 72.9932C182.312 74.2992 182.63 74.6875 183.512 74.6875V75.0051H179.7V74.6875C180.582 74.6875 180.9 74.3698 180.9 72.9932V66.3927C180.9 65.0515 180.618 64.6985 179.7 64.6985V64.3808H183.512V64.6985C182.63 64.6985 182.312 65.1221 182.312 66.3927V72.9932Z" fill="#99792E"/>
<path id="Vector_23" d="M189.865 75.1463H189.583L186.3 66.5692C185.806 65.2633 185.559 64.7691 184.536 64.7338V64.4161H188.383V64.7338C187.642 64.7338 187.253 65.1574 187.571 65.9692L190.148 72.8168L192.619 66.2163C192.936 65.2986 192.795 64.7338 191.842 64.7338V64.4161H194.913V64.7338C194.136 64.7338 193.536 65.3338 193.007 66.781L189.865 75.1463Z" fill="#99792E"/>
<path id="Vector_24" d="M202.996 70.9813H202.678C202.466 70.0636 202.29 69.9577 201.196 69.9577H198.584V73.7345C198.584 74.2639 198.76 74.4404 199.36 74.4404H201.196C202.749 74.4404 203.137 74.3698 203.772 72.9932H204.09L203.596 74.9698H195.972V74.6522C196.819 74.6522 197.172 74.4051 197.172 72.9932V66.3927C197.172 65.0868 196.89 64.6985 195.972 64.6985V64.3808H203.596V66.1457H203.384C203.137 64.9809 202.784 64.875 201.619 64.875H198.584V69.393H201.549C202.255 69.393 202.537 69.2518 202.678 68.3694H202.996V70.9813Z" fill="#99792E"/>
<path id="Vector_25" d="M211.538 66.7457H211.22C211.044 65.1926 209.949 64.5573 208.89 64.5573C207.796 64.5573 206.984 65.1573 206.984 66.1457C206.984 68.087 209.667 68.6164 211.185 70.1342C211.926 70.8754 212.102 71.546 212.102 72.252C212.102 73.9109 210.761 75.2522 209.102 75.2522C207.973 75.2522 207.02 74.6875 206.667 74.6875C206.49 74.6875 206.349 74.8286 206.278 75.0757H205.961V72.2167H206.278C206.314 74.158 207.902 74.8286 208.82 74.8286C210.091 74.8286 210.938 74.0874 210.938 72.9579C210.938 71.1225 208.079 70.2754 206.914 69.1106C206.278 68.4752 205.996 67.734 205.996 66.8869C205.996 65.2632 207.161 64.169 208.89 64.169C210.02 64.169 210.549 64.5573 210.973 64.5573C211.149 64.5573 211.185 64.522 211.255 64.2749H211.538V66.7457Z" fill="#99792E"/>
</g>
</g>
<defs>
<clipPath id="clip0_517_41">
<rect width="245" height="82" fill="white"/>
</clipPath>
</defs>
</svg>
