<svg width="52" height="53" viewBox="0 0 52 53" fill="none" xmlns="http://www.w3.org/2000/svg">
<g id="Picnic" clip-path="url(#clip0_430_118)">
<path id="Vector" d="M3.30638 3.27642C3.22977 3.35069 3.16855 3.43934 3.1262 3.53729C3.08386 3.63523 3.06123 3.74057 3.05961 3.84726C3.05799 3.95396 3.0774 4.05993 3.11675 4.15912C3.15609 4.25831 3.2146 4.34877 3.28891 4.42534L4.55329 5.72941C4.62758 5.80599 4.71623 5.86719 4.81418 5.90952C4.91212 5.95184 5.01745 5.97446 5.12413 5.97608C5.23082 5.97771 5.33678 5.9583 5.43597 5.91897C5.53516 5.87964 5.62563 5.82115 5.70221 5.74686C5.7788 5.67257 5.84 5.58392 5.88233 5.48597C5.92465 5.38802 5.94727 5.2827 5.94889 5.17601C5.95051 5.06933 5.9311 4.96336 5.89177 4.86418C5.85244 4.76499 5.79396 4.67452 5.71967 4.59794L4.45529 3.29387C4.38102 3.21726 4.29237 3.15604 4.19443 3.1137C4.09648 3.07136 3.99115 3.04873 3.88446 3.04711C3.77776 3.04549 3.67179 3.06491 3.57261 3.10425C3.47342 3.1436 3.38295 3.2021 3.30638 3.27642ZM0.86333 9.21624C0.648919 9.21638 0.443254 9.30126 0.291157 9.45238C0.139059 9.60351 0.0528582 9.80862 0.0513402 10.023C0.0498223 10.2374 0.13311 10.4438 0.283053 10.597C0.432995 10.7503 0.637437 10.8381 0.851825 10.8412L2.73827 10.869H2.75056C2.96498 10.8689 3.17064 10.784 3.32274 10.6329C3.47484 10.4817 3.56104 10.2766 3.56255 10.0622C3.56407 9.84781 3.48078 9.6415 3.33084 9.48823C3.1809 9.33497 2.97646 9.24719 2.76207 9.24401L0.875631 9.21624H0.86333ZM10.3622 4.01196C10.5699 4.01175 10.7696 3.93204 10.9203 3.78921C11.071 3.64637 11.1614 3.45124 11.1727 3.24389L11.2719 1.42727C11.2778 1.32073 11.2625 1.21408 11.2272 1.11341C11.1918 1.01275 11.1369 0.920038 11.0657 0.840575C10.9945 0.761112 10.9083 0.696453 10.8121 0.65029C10.7159 0.604127 10.6116 0.577363 10.505 0.571528C10.3985 0.565693 10.2918 0.5809 10.1912 0.616282C10.0905 0.651663 9.99781 0.706525 9.91834 0.777736C9.75786 0.921553 9.66108 1.12323 9.6493 1.3384L9.55012 3.15502C9.54428 3.26157 9.55948 3.36822 9.59486 3.46889C9.63024 3.56955 9.6851 3.66227 9.75632 3.74173C9.82753 3.82119 9.91369 3.88585 10.0099 3.93202C10.1061 3.97818 10.2105 4.00494 10.317 4.01077C10.3321 4.01156 10.3471 4.01196 10.3622 4.01196ZM0.993062 6.3594C0.951472 6.45766 0.929646 6.56315 0.928831 6.66984C0.928017 6.77654 0.948229 6.88235 0.988313 6.98123C1.0284 7.08011 1.08757 7.17013 1.16245 7.24614C1.23733 7.32215 1.32645 7.38267 1.42472 7.42423L3.12986 8.14588C3.32823 8.22943 3.55165 8.23085 3.75106 8.14983C3.95048 8.06881 4.10959 7.91196 4.19347 7.71373C4.27734 7.51549 4.27912 7.29208 4.19842 7.09253C4.11772 6.89298 3.96113 6.73362 3.76304 6.64942L2.05788 5.92776C1.85942 5.84399 1.63582 5.84239 1.43618 5.92332C1.23654 6.00424 1.07717 6.16108 0.993062 6.3594ZM7.57915 4.49598C7.71013 4.49573 7.83911 4.46386 7.95514 4.40309C8.07117 4.34231 8.1708 4.25442 8.24558 4.14688C8.32036 4.03935 8.36807 3.91535 8.38466 3.78542C8.40125 3.6555 8.38623 3.52349 8.34087 3.40061L7.71443 1.71015C7.63951 1.50813 7.48742 1.34415 7.29159 1.25427C7.09577 1.16439 6.87226 1.15599 6.67024 1.2309C6.46822 1.30582 6.30423 1.45792 6.21436 1.65374C6.12448 1.84957 6.11608 2.07307 6.19099 2.27509L6.81743 3.96555C6.87504 4.12117 6.97892 4.25541 7.1151 4.35024C7.25127 4.44506 7.41321 4.49592 7.57915 4.49598ZM13.06 4.56619C13.2131 4.5662 13.3631 4.52297 13.4927 4.44148C13.6223 4.36 13.7263 4.24356 13.7927 4.10557L14.5961 2.43376C14.6894 2.23953 14.7018 2.01617 14.6304 1.81283C14.5591 1.6095 14.4099 1.44283 14.2156 1.3495C14.0214 1.25617 13.798 1.24382 13.5947 1.31518C13.3914 1.38653 13.2247 1.53573 13.1314 1.72996L12.328 3.40178C12.2685 3.52561 12.2414 3.66251 12.2491 3.79967C12.2569 3.93683 12.2993 4.06979 12.3725 4.1861C12.4456 4.30241 12.547 4.39828 12.6672 4.46475C12.7875 4.53122 12.9226 4.56612 13.06 4.56619ZM2.90688 12.1104L1.13945 12.8158C1.04036 12.8553 0.950028 12.914 0.873611 12.9884C0.797194 13.0629 0.73619 13.1517 0.694083 13.2497C0.651975 13.3477 0.629588 13.4531 0.6282 13.5598C0.626812 13.6664 0.646451 13.7724 0.685994 13.8715C0.725537 13.9705 0.784211 14.0609 0.858665 14.1373C0.933119 14.2137 1.0219 14.2747 1.11993 14.3168C1.21796 14.3589 1.32332 14.3813 1.43 14.3827C1.53668 14.3841 1.64259 14.3645 1.74169 14.3249L3.50911 13.6195C3.70924 13.5397 3.86945 13.3836 3.95449 13.1856C4.03953 12.9876 4.04244 12.764 3.96258 12.5638C3.88272 12.3637 3.72663 12.2035 3.52865 12.1185C3.33066 12.0334 3.10701 12.0305 2.90688 12.1104ZM4.55569 10.2235C4.53117 10.9402 4.65267 11.6544 4.91279 12.3226C5.17291 12.9909 5.56622 13.5992 6.06881 14.1107C6.15269 14.1966 6.25476 14.2626 6.36749 14.3038C6.65674 13.8705 6.96408 13.4501 7.28133 13.0375C7.26574 13.0182 7.25282 12.9974 7.23519 12.9792C6.88411 12.6226 6.60947 12.198 6.42809 11.7316C6.24671 11.2652 6.16239 10.7666 6.18029 10.2665C6.19819 9.76634 6.31793 9.27511 6.53219 8.82283C6.74645 8.37055 7.05073 7.96674 7.42641 7.63609C8.19519 6.95355 9.19267 6.58531 10.2205 6.60459C11.2484 6.62387 12.2314 7.02926 12.974 7.74015C13.4262 7.44132 13.8876 7.15525 14.3614 6.88699C14.3256 6.81299 14.2788 6.74491 14.2224 6.68513C13.1908 5.64151 11.7983 5.03319 10.3316 4.98544C8.865 4.93769 7.43588 5.45414 6.33859 6.42844C5.79968 6.90713 5.36372 7.49041 5.05723 8.14281C4.75073 8.79522 4.5801 9.50313 4.55569 10.2235ZM19.323 52.1942C19.4403 52.3742 19.6235 52.501 19.8332 52.5476C20.0429 52.5942 20.2625 52.5568 20.445 52.4434C20.6267 52.3276 20.7551 52.1444 20.8018 51.934C20.8485 51.7236 20.8098 51.5033 20.6941 51.3214L18.6451 48.1016H18.818C19.0825 48.1017 19.3431 48.0372 19.577 47.9137C19.8109 47.7902 20.0112 47.6114 20.1603 47.3929C20.3094 47.1744 20.4029 46.9228 20.4327 46.66C20.4625 46.3971 20.4276 46.131 20.3311 45.8847L19.3421 43.3571C19.2241 43.052 19.0163 42.7898 18.7461 42.6054C18.4759 42.421 18.1561 42.323 17.8289 42.3244H12.5885L4.94279 32.8386C4.80202 32.6642 4.62668 32.5207 4.42781 32.4173C4.22893 32.3139 4.0108 32.2527 3.78714 32.2376C3.56348 32.2225 3.33912 32.2538 3.12815 32.3296C2.91718 32.4054 2.72416 32.524 2.56123 32.678L0.508162 34.6196C0.20676 34.9049 0.0258759 35.2947 0.00256805 35.7091C-0.0207398 36.1234 0.115293 36.5311 0.382797 36.8484L9.25226 47.3567L6.72926 51.3214C6.61358 51.5033 6.57484 51.7236 6.62156 51.934C6.66828 52.1444 6.79663 52.3276 6.97841 52.4434C7.16102 52.5562 7.38045 52.5933 7.59 52.5468C7.79955 52.5002 7.98266 52.3737 8.10036 52.1942L10.7048 48.1016H16.7186L19.323 52.1942ZM12.3454 43.9222C12.4258 43.9374 12.5072 43.9465 12.5889 43.9494L17.8289 43.949L18.818 46.4766H11.1554L12.3454 43.9222ZM49.4385 32.678C49.2756 32.5239 49.0826 32.4052 48.8716 32.3293C48.6606 32.2535 48.4361 32.2221 48.2124 32.2372C47.9887 32.2524 47.7706 32.3137 47.5717 32.4172C47.3728 32.5208 47.1976 32.6644 47.0569 32.839L39.4755 42.2446C39.4486 42.2694 39.4235 42.2961 39.4002 42.3244H34.1708C33.8436 42.323 33.5238 42.421 33.2536 42.6054C32.9834 42.7898 32.7756 43.052 32.6576 43.3571L31.6686 45.8843C31.5721 46.1306 31.5373 46.3968 31.5671 46.6596C31.5968 46.9225 31.6903 47.1741 31.8395 47.3926C31.9886 47.6111 32.1888 47.7899 32.4227 47.9135C32.6566 48.037 32.9172 48.1016 33.1817 48.1016H33.3402L31.2912 51.3214C31.1755 51.5032 31.1367 51.7236 31.1834 51.934C31.2302 52.1444 31.3585 52.3276 31.5404 52.4434C31.7222 52.5591 31.9425 52.5979 32.1529 52.5512C32.3633 52.5044 32.5466 52.376 32.6623 52.1942L35.2667 48.1016H41.2805L43.885 52.1942C43.9423 52.2843 44.0168 52.3621 44.1042 52.4234C44.1916 52.4846 44.2902 52.528 44.3943 52.5512C44.4985 52.5743 44.6062 52.5767 44.7113 52.5582C44.8165 52.5397 44.9169 52.5007 45.0069 52.4434C45.0969 52.3861 45.1748 52.3116 45.236 52.2242C45.2973 52.1368 45.3407 52.0382 45.3638 51.934C45.387 51.8298 45.3894 51.7221 45.3709 51.617C45.3524 51.5119 45.3134 51.4115 45.2561 51.3214L42.7392 47.3664L51.6169 36.8484C51.8846 36.5311 52.0207 36.1235 51.9974 35.709C51.9741 35.2946 51.7931 34.9048 51.4915 34.6196L49.4385 32.678ZM33.1817 46.4766L34.1708 43.9494H39.4112C39.4881 43.9464 39.5648 43.9378 39.6406 43.9238L40.83 46.4766H33.1817Z" fill="#2959A1"/>
<path id="Vector_2" d="M35.3438 39.5704V36.3204C35.3437 36.1049 35.2581 35.8983 35.1058 35.7459C34.9534 35.5935 34.7467 35.5079 34.5312 35.5079H17.4688C17.2533 35.5079 17.0466 35.5935 16.8942 35.7459C16.7419 35.8983 16.6563 36.1049 16.6562 36.3204V39.5704C16.6563 39.7859 16.7419 39.9926 16.8942 40.1449C17.0466 40.2973 17.2533 40.3829 17.4688 40.3829H25.1875V51.7579C25.1875 51.9734 25.2731 52.1801 25.4255 52.3325C25.5778 52.4848 25.7845 52.5704 26 52.5704C26.2155 52.5704 26.4222 52.4848 26.5745 52.3325C26.7269 52.1801 26.8125 51.9734 26.8125 51.7579V40.3829H34.5312C34.7467 40.3829 34.9534 40.2973 35.1058 40.1449C35.2581 39.9926 35.3437 39.7859 35.3438 39.5704ZM26.0203 25.1973C25.7409 25.1965 25.462 25.2223 25.1875 25.2745V33.883H26.8125V25.2664C26.5509 25.2207 26.2859 25.1976 26.0203 25.1973Z" fill="#2959A1"/>
<path id="Vector_3" d="M40.1131 23.5722C41.5004 23.569 42.8474 24.0384 43.9321 24.9031C45.0169 25.7679 45.7748 26.9763 46.0809 28.3294C46.2678 29.2231 46.9341 29.2191 47.0641 29.2069C47.2328 29.1919 47.3937 29.1284 47.5272 29.0241C47.6571 28.932 47.7633 28.8102 47.8367 28.6689C47.9102 28.5276 47.9489 28.3708 47.9497 28.2116C47.9741 27.7931 47.9863 27.395 47.9903 27.005C48.0431 15.4594 38.9106 5.98969 27.1984 5.44531H26.8125V4.63281C26.8125 4.41732 26.7269 4.21066 26.5745 4.05829C26.4222 3.90592 26.2155 3.82031 26 3.82031C25.7845 3.82031 25.5779 3.90592 25.4255 4.05829C25.2731 4.21066 25.1875 4.41732 25.1875 4.63281V5.44531H25.0453C13.3331 5.98969 4.11531 15.4553 4.0625 26.9969C4.0625 27.2853 4.06656 27.5737 4.07469 27.8581C4.10719 28.8128 4.72469 28.955 4.91156 28.9753C4.94662 28.9792 4.98191 28.9806 5.01717 28.9794C5.22842 28.9916 5.7931 28.9306 6.01654 28.0978C6.37294 26.7979 7.14636 25.651 8.21793 24.8334C9.2895 24.0158 10.5999 23.5727 11.9478 23.5722C13.4373 23.5587 14.8793 24.0956 15.9972 25.08C17.1151 26.0645 17.8301 27.427 18.005 28.9062C18.022 29.0984 18.0933 29.2818 18.2105 29.435C18.3278 29.5882 18.4862 29.7049 18.6672 29.7716C18.7612 29.8042 18.8601 29.8206 18.9597 29.8203C19.1198 29.8194 19.2769 29.776 19.4147 29.6944C19.4222 29.69 19.4291 29.6845 19.435 29.6781C19.5699 29.6089 19.6862 29.5081 19.7739 29.3843C19.8616 29.2606 19.9181 29.1175 19.9388 28.9672C20.4443 26.0358 22.996 23.5722 26.0203 23.5722C27.3564 23.5684 28.6568 24.0037 29.7213 24.8112C30.3534 25.2824 30.8862 25.8738 31.2892 26.5514C31.6921 27.2291 31.9573 27.9796 32.0694 28.76C32.06 29.0007 32.1372 29.2367 32.2871 29.4253C32.4369 29.6139 32.6494 29.7425 32.8859 29.7878C33.0195 29.8103 33.1563 29.8049 33.2877 29.7719C33.419 29.739 33.5422 29.6793 33.6494 29.5965C33.7566 29.5137 33.8455 29.4097 33.9106 29.2909C33.9756 29.1721 34.0155 29.0412 34.0275 28.9062C34.2218 27.43 34.9463 26.0748 36.066 25.0934C37.1857 24.112 38.6242 23.5713 40.1131 23.5722ZM33.0403 26.3753C32.8155 25.9021 32.5432 25.453 32.2278 25.0347C32.0491 14.6103 28.4822 9.54031 26.8125 7.72844V21.9919C26.5525 21.9675 26.2884 21.9472 26.0203 21.9472C25.7419 21.9485 25.4638 21.9661 25.1875 22V7.94375C23.4284 9.94656 20.0444 15.0775 19.7925 25.1403C19.4882 25.5521 19.2229 25.9914 19.0003 26.4525C18.7753 25.9556 18.4974 25.4843 18.1716 25.0469C18.4194 14.9922 21.645 9.59719 23.6722 7.18813C24.1353 7.13531 24.6066 7.09469 25.0819 7.07031H27.0888C27.5681 7.09469 28.0434 7.13531 28.5106 7.19219C30.5175 9.60125 33.6903 15.0003 33.8488 25.0509C33.5339 25.463 33.2629 25.9069 33.0403 26.3753Z" fill="#2959A1"/>
</g>
<defs>
<clipPath id="clip0_430_118">
<rect width="52" height="52" fill="white" transform="translate(0 0.570312)"/>
</clipPath>
</defs>
</svg>
