<svg width="47" height="49" viewBox="0 0 47 49" fill="none" xmlns="http://www.w3.org/2000/svg">
<g id="Play">
<path id="Vector" d="M11.75 39.8124C11.2124 39.8124 10.6778 39.6593 10.2049 39.3561C9.77945 39.0809 9.42835 38.6972 9.18472 38.2412C8.94109 37.7852 8.81298 37.2719 8.8125 36.7499V12.2499C8.8125 11.1873 9.34125 10.2011 10.2049 9.64375C10.6312 9.37046 11.1173 9.2147 11.6173 9.19113C12.1173 9.16756 12.6148 9.27694 13.0631 9.509L36.5631 21.759C37.051 22.0138 37.4613 22.4051 37.748 22.8892C38.0347 23.3733 38.1866 23.931 38.1866 24.4999C38.1866 25.0689 38.0347 25.6266 37.748 26.1107C37.4613 26.5947 37.051 26.9861 36.5631 27.2409L13.0631 39.4909C12.6518 39.7053 12.1965 39.8124 11.75 39.8124Z" fill="white"/>
</g>
</svg>
