<svg width="46" height="41" viewBox="0 0 46 41" fill="none" xmlns="http://www.w3.org/2000/svg">
<path id="Vector" d="M34.124 5.40744H37.5737C39.8554 5.40744 41.929 6.34721 43.431 7.86016C44.9328 9.3731 45.8657 11.4626 45.8657 13.7606V32.5566C45.8657 34.8552 44.933 36.9441 43.4312 38.457C41.9294 39.9702 39.8554 40.9099 37.5737 40.9099H8.29192C6.01021 40.9099 3.93671 39.9702 2.43489 38.457C0.932857 36.9441 0 34.8552 0 32.5566V13.7606C0 11.462 0.932857 9.37289 2.43489 7.85995C3.93671 6.34679 6.01021 5.40744 8.29192 5.40744H11.7419C12.0679 4.3433 12.7049 3.40711 13.4883 2.65032C14.8205 1.36273 16.6491 0.570312 18.0649 0.570312H27.8005C29.2163 0.570312 31.0452 1.36273 32.3771 2.65032C33.1604 3.40711 33.7973 4.3433 34.1238 5.40744H34.124ZM22.9328 12.9779C25.7228 12.9779 28.25 14.1177 30.0787 15.9599C31.9075 17.8023 33.039 20.348 33.039 23.1589C33.039 25.9696 31.9075 28.5152 30.0787 30.3577C28.2496 32.1999 25.7232 33.3397 22.9328 33.3397C20.1424 33.3397 17.6161 32.1999 15.787 30.3577C13.9583 28.515 12.8269 25.9698 12.8269 23.1589C12.8269 20.3478 13.9583 17.8026 15.787 15.9599C17.6157 14.1177 20.1428 12.9779 22.9328 12.9779ZM27.8804 18.1746C26.6147 16.8995 24.8653 16.1109 22.9328 16.1109C21.0006 16.1109 19.251 16.8995 17.9852 18.1746C16.7199 19.4498 15.9366 21.2123 15.9366 23.1589C15.9366 25.1053 16.7199 26.868 17.9852 28.143C19.251 29.4179 21.0006 30.207 22.9328 30.207C24.8649 30.207 26.6147 29.4179 27.8804 28.143C29.1462 26.868 29.929 25.1055 29.929 23.1589C29.929 21.2121 29.1462 19.4498 27.8804 18.1746ZM37.5737 8.54021H32.8055C31.9469 8.54021 31.2507 7.83887 31.2507 6.97393C31.2507 6.2007 30.8198 5.47406 30.2272 4.90172C29.4599 4.1599 28.4936 3.70329 27.8007 3.70329H18.0652C17.3723 3.70329 16.406 4.1599 15.6386 4.90172C15.046 5.47427 14.6152 6.2007 14.6152 6.97393C14.6152 7.83887 13.919 8.54021 13.0604 8.54021H8.29213C6.86836 8.54021 5.57287 9.12815 4.63331 10.0747C3.69376 11.0214 3.10994 12.3265 3.10994 13.7608V32.5568C3.10994 33.9907 3.69376 35.2962 4.63331 36.2427C5.57308 37.1892 6.86857 37.7774 8.29213 37.7774H37.5739C38.9977 37.7774 40.2936 37.1892 41.233 36.2427C42.1727 35.296 42.7561 33.9911 42.7561 32.5568V13.7608C42.7561 12.3269 42.1725 11.0214 41.2328 10.0751C40.293 9.12836 38.9975 8.54021 37.5739 8.54021H37.5737Z" fill="#2959A1"/>
</svg>
