<svg width="47" height="33" viewBox="0 0 47 33" fill="none" xmlns="http://www.w3.org/2000/svg">
<path id="Vector" d="M12.7273 17.54C13.9859 17.54 15.2162 17.1668 16.2627 16.4675C17.3092 15.7683 18.1249 14.7744 18.6065 13.6116C19.0882 12.4488 19.2142 11.1693 18.9686 9.93489C18.7231 8.70047 18.117 7.56657 17.227 6.6766C16.3371 5.78663 15.2032 5.18056 13.9688 4.93501C12.7343 4.68947 11.4548 4.81549 10.292 5.29714C9.12921 5.77879 8.13535 6.59443 7.4361 7.64093C6.73686 8.68742 6.36364 9.91777 6.36364 11.1764C6.36364 12.8641 7.03409 14.4827 8.2275 15.6761C9.42092 16.8696 11.0395 17.54 12.7273 17.54ZM12.7273 9.05516C13.1468 9.05516 13.5569 9.17957 13.9058 9.41265C14.2546 9.64573 14.5265 9.97702 14.687 10.3646C14.8476 10.7522 14.8896 11.1787 14.8077 11.5902C14.7259 12.0017 14.5239 12.3796 14.2272 12.6763C13.9305 12.973 13.5526 13.175 13.1411 13.2568C12.7296 13.3387 12.3031 13.2967 11.9155 13.1361C11.5279 12.9756 11.1966 12.7037 10.9636 12.3549C10.7305 12.006 10.6061 11.5959 10.6061 11.1764C10.6061 10.6138 10.8295 10.0743 11.2274 9.67645C11.6252 9.27865 12.1647 9.05516 12.7273 9.05516ZM40.303 4.81274H23.3333C22.7708 4.81274 22.2312 5.03622 21.8334 5.43403C21.4356 5.83183 21.2121 6.37137 21.2121 6.93395V19.6612H4.24242V2.69152C4.24242 2.12894 4.01894 1.58941 3.62114 1.1916C3.22333 0.793797 2.68379 0.570312 2.12121 0.570312C1.55863 0.570312 1.01909 0.793797 0.621289 1.1916C0.223484 1.58941 0 2.12894 0 2.69152V30.2673C0 30.8299 0.223484 31.3694 0.621289 31.7672C1.01909 32.165 1.55863 32.3885 2.12121 32.3885C2.68379 32.3885 3.22333 32.165 3.62114 31.7672C4.01894 31.3694 4.24242 30.8299 4.24242 30.2673V23.9036H42.4242V30.2673C42.4242 30.8299 42.6477 31.3694 43.0455 31.7672C43.4433 32.165 43.9829 32.3885 44.5455 32.3885C45.108 32.3885 45.6476 32.165 46.0454 31.7672C46.4432 31.3694 46.6667 30.8299 46.6667 30.2673V11.1764C46.6667 9.48863 45.9962 7.87002 44.8028 6.6766C43.6094 5.48319 41.9908 4.81274 40.303 4.81274ZM42.4242 19.6612H25.4545V9.05516H40.303C40.8656 9.05516 41.4052 9.27865 41.803 9.67645C42.2008 10.0743 42.4242 10.6138 42.4242 11.1764V19.6612Z" fill="#2959A1"/>
</svg>
