<svg width="73" height="31" viewBox="0 0 73 31" fill="none" xmlns="http://www.w3.org/2000/svg">
<path id="Vector" d="M72.0436 28.722L65.6557 26.3148C67.7341 23.7314 69.4133 20.4905 70.4818 17.1322C70.4936 17.0852 70.5171 17.05 70.5171 17.003C71.0572 15.2886 71.4447 13.5508 71.6209 11.8598C71.6561 11.5193 71.5387 11.167 71.2921 10.9205C71.1512 10.7795 70.9868 10.6856 70.7989 10.6386C70.7989 10.6386 70.7872 10.6152 70.7754 10.6152C67.7811 9.7697 64.4697 9.07689 60.8531 8.525C56.297 3.69886 45.3883 0 38.7538 0C38.3311 0 37.9319 0.234849 37.7322 0.598864C37.5209 0.974621 37.5326 1.43258 37.7675 1.78485L41.2784 7.43295L30.2993 13.7034L18.7917 14.6076V11.2962C18.7917 9.59356 17.4061 8.20795 15.7034 8.20795H6.61481C4.91215 8.20795 3.52655 9.59356 3.52655 11.2962V15.6879C3.52655 17.2261 4.66556 18.4943 6.14511 18.7292L3.85534 25.0231C3.85534 25.0231 3.83185 25.0348 3.82011 25.0466L0.297381 29.039C-0.137089 29.5205 -0.090119 30.272 0.403063 30.6947C0.884502 31.1292 1.62427 31.0822 2.05874 30.589L5.04132 27.2072L9.90268 29.039C10.8069 29.3795 11.7462 29.5439 12.6856 29.5792C12.7091 29.5792 12.7326 29.5909 12.7561 29.5909C12.7913 29.5909 12.8383 29.5909 12.8735 29.5909C15.1515 29.6261 17.4061 28.7924 19.1087 27.2072L23.9936 29.0508C27.164 30.2485 30.7572 29.497 33.1997 27.2072L38.0845 29.0508C41.2784 30.2485 44.8951 29.4852 47.2906 27.2072L52.1637 29.0508C55.3341 30.2485 58.9273 29.497 61.3697 27.2072L71.2216 30.9295C71.3625 30.9765 71.5034 31 71.6326 31C72.1023 31 72.5485 30.7064 72.7364 30.2367C72.9712 29.6261 72.6542 28.9568 72.0553 28.722H72.0436ZM11.9811 17.6136C11.9811 17.5902 11.9693 17.5667 11.9693 17.5432V17.508L69.0962 13.0223C68.9436 13.9265 68.7087 14.8424 68.4387 15.7583C61.1936 17.1205 51.4122 17.7193 41.0553 18.3534C31.6731 18.9288 21.9856 19.5277 12.533 20.7254L11.9693 17.6136H11.9811ZM56.4731 7.94962C52.6099 7.51515 48.4061 7.23333 43.8383 7.09242L40.9496 2.46591C46.1163 3.00606 52.4103 5.27235 56.4731 7.94962ZM42.5818 9.39394C50.2614 9.59356 56.8489 10.1807 62.5557 11.1788L35.783 13.2807L42.5701 9.39394H42.5818ZM5.88678 15.6879V11.2962C5.88678 10.8852 6.21556 10.5564 6.62655 10.5564H15.7152C16.1262 10.5564 16.455 10.8852 16.455 11.2962V14.7837L10.4898 15.2534C10.161 15.2769 9.85571 15.4413 9.65609 15.7114C9.4917 15.9227 9.43299 16.1693 9.43299 16.4277H6.62655C6.21556 16.4277 5.88678 16.0989 5.88678 15.6879ZM6.3095 25.164L8.6345 18.7761H9.82049L11.3235 27.0076C11.1356 26.9606 10.936 26.9136 10.7481 26.8432L6.3095 25.164ZM60.1955 25.0466C58.4224 27.0663 55.522 27.7943 53.0091 26.8432L47.408 24.7295C46.95 24.5534 46.4334 24.6943 46.1046 25.0583C44.3197 27.078 41.4428 27.7943 38.9182 26.8432L33.3171 24.7295C32.8591 24.5534 32.3425 24.6943 32.0137 25.0583C30.2406 27.078 27.3402 27.7943 24.8273 26.8432L19.2262 24.7295C18.7682 24.5534 18.2398 24.6943 17.9228 25.0583C16.8307 26.2913 15.3277 27.0428 13.7425 27.2189L12.9792 23.0386C22.3144 21.8644 31.9197 21.2655 41.2197 20.7019C51.0481 20.103 60.3599 19.5277 67.5932 18.3064C66.5247 20.9837 65.0451 23.4848 63.3425 25.4341L61.4872 24.7295C61.0292 24.5534 60.5125 24.6826 60.1955 25.0583V25.0466Z" fill="#2959A1"/>
</svg>
