<svg width="50" height="38" viewBox="0 0 50 38" fill="none" xmlns="http://www.w3.org/2000/svg">
<path id="Vector" d="M45.6895 34.2323C44.9555 34.2164 44.2324 34.4117 43.6061 34.7948C43.2894 34.9777 42.9301 35.0739 42.5644 35.0739C42.1986 35.0739 41.8394 34.9777 41.5227 34.7948C40.8928 34.4186 40.1729 34.2199 39.4392 34.2199C38.7056 34.2199 37.9856 34.4186 37.3558 34.7948C37.0429 34.9885 36.6821 35.0911 36.3141 35.0911C35.9461 35.0911 35.5853 34.9885 35.2724 34.7948C34.6425 34.4186 33.9226 34.2199 33.189 34.2199C32.4553 34.2199 31.7354 34.4186 31.1055 34.7948C30.7926 34.9885 30.4319 35.0911 30.0638 35.0911C29.6958 35.0911 29.335 34.9885 29.0221 34.7948C28.393 34.4164 27.6728 34.2165 26.9387 34.2165C26.2046 34.2165 25.4843 34.4164 24.8553 34.7948C24.5423 34.9885 24.1816 35.0911 23.8135 35.0911C23.4455 35.0911 23.0848 34.9885 22.7718 34.7948C22.1428 34.4164 21.4225 34.2165 20.6884 34.2165C19.9543 34.2165 19.234 34.4164 18.605 34.7948C18.2929 34.9908 17.9318 35.0948 17.5633 35.0948C17.1947 35.0948 16.8336 34.9908 16.5216 34.7948C15.8925 34.4164 15.1722 34.2165 14.4381 34.2165C13.704 34.2165 12.9838 34.4164 12.3547 34.7948C12.043 35.0099 11.6706 35.1194 11.2922 35.1073C10.9207 35.115 10.5563 35.0057 10.2504 34.7948C9.62464 34.4106 8.90118 34.2152 8.16702 34.2323C7.43287 34.2152 6.70941 34.4106 6.0836 34.7948C5.77194 35.0099 5.39954 35.1194 5.02105 35.1073C4.64963 35.115 4.2852 35.0057 3.97934 34.7948C3.35353 34.4106 2.63007 34.2152 1.89592 34.2323C1.61964 34.2323 1.35467 34.342 1.15931 34.5374C0.963956 34.7327 0.854204 34.9977 0.854204 35.274C0.854204 35.5503 0.963956 35.8152 1.15931 36.0106C1.35467 36.2059 1.61964 36.3157 1.89592 36.3157C2.26734 36.308 2.63177 36.4174 2.93763 36.6282C3.56296 37.0136 4.28675 37.209 5.02105 37.1907C5.75521 37.2078 6.47867 37.0124 7.10448 36.6282C7.41034 36.4174 7.77477 36.308 8.14619 36.3157C8.52468 36.3036 8.89708 36.4131 9.20874 36.6282C9.83455 37.0124 10.558 37.2078 11.2922 37.1907C12.0263 37.2078 12.7498 37.0124 13.3756 36.6282C13.6877 36.4322 14.0487 36.3282 14.4173 36.3282C14.7858 36.3282 15.1469 36.4322 15.459 36.6282C16.0873 37.0088 16.8078 37.2101 17.5424 37.2101C18.277 37.2101 18.9976 37.0088 19.6259 36.6282C19.9379 36.4322 20.299 36.3282 20.6676 36.3282C21.0361 36.3282 21.3972 36.4322 21.7093 36.6282C22.3384 37.0066 23.0586 37.2066 23.7927 37.2066C24.5268 37.2066 25.2471 37.0066 25.8761 36.6282C26.1891 36.4345 26.5498 36.3319 26.9178 36.3319C27.2859 36.3319 27.6466 36.4345 27.9596 36.6282C28.5894 37.0044 29.3093 37.2031 30.043 37.2031C30.7766 37.2031 31.4966 37.0044 32.1264 36.6282C32.4393 36.4345 32.8001 36.3319 33.1681 36.3319C33.5362 36.3319 33.8969 36.4345 34.2098 36.6282C34.8397 37.0044 35.5596 37.2031 36.2933 37.2031C37.0269 37.2031 37.7469 37.0044 38.3767 36.6282C38.6934 36.4454 39.0527 36.3491 39.4184 36.3491C39.7841 36.3491 40.1434 36.4454 40.4601 36.6282C41.0935 36.9939 41.8121 37.1865 42.5435 37.1865C43.275 37.1865 43.9935 36.9939 44.627 36.6282C44.9399 36.4157 45.3114 36.3065 45.6895 36.3157C45.9658 36.3157 46.2307 36.2059 46.4261 36.0106C46.6215 35.8152 46.7312 35.5503 46.7312 35.274C46.7312 34.9977 46.6215 34.7327 46.4261 34.5374C46.2307 34.342 45.9658 34.2323 45.6895 34.2323ZM50.0022 15.8148C50.0049 15.7732 50.0049 15.7314 50.0022 15.6898C49.9481 15.5135 49.8474 15.3551 49.7105 15.2314L38.9392 6.27271C37.6278 5.18341 35.9771 4.58649 34.2723 4.58514H32.2931H31.7514L27.0845 0.626632H26.9595L26.772 0.522461H26.5637H19.7925C19.5163 0.522461 19.2513 0.632212 19.0559 0.827571C18.8606 1.02293 18.7508 1.28789 18.7508 1.56417C18.7508 1.84045 18.8606 2.10542 19.0559 2.30077C19.2513 2.49613 19.5163 2.60589 19.7925 2.60589H26.0428L29.8763 5.87686C29.4337 6.42588 29.1912 7.10924 29.1888 7.81445V11.773C28.3335 11.0702 27.2899 10.6353 26.1886 10.5229L10.2504 8.85616C9.42235 8.85916 8.62882 9.18855 8.04202 9.77287L4.64604 14.9606H3.12514C2.2963 14.9606 1.50141 15.2898 0.915331 15.8759C0.329255 16.462 0 17.2569 0 18.0857L0 24.336C0 25.1648 0.329255 25.9597 0.915331 26.5458C1.50141 27.1319 2.2963 27.4611 3.12514 27.4611H34.3765C44.7936 27.4611 50.0022 23.6068 50.0022 16.0023C50.0081 15.9399 50.0081 15.8772 50.0022 15.8148ZM31.2514 7.66861C31.2507 7.4653 31.3095 7.26622 31.4205 7.09593C31.5316 6.92563 31.6901 6.79155 31.8764 6.71023C31.9936 6.6896 32.1134 6.6896 32.2306 6.71023H34.1265C35.3445 6.71254 36.5234 7.13991 37.46 7.91862L46.0229 15.0439H31.2514V7.66861ZM9.56292 11.0438C9.72096 10.9057 9.91703 10.8185 10.1254 10.7937L25.9595 12.4396C26.6624 12.5089 27.3288 12.7856 27.8741 13.2345C28.4194 13.6833 28.819 14.2841 29.0221 14.9606H7.10448L9.56292 11.0438ZM34.3765 25.3777H3.12514C2.84886 25.3777 2.58389 25.268 2.38854 25.0726C2.19318 24.8772 2.08342 24.6123 2.08342 24.336V21.2109H46.377C44.3978 23.9818 40.4393 25.3777 34.3765 25.3777ZM47.4604 19.1274H2.08342V18.0857C2.08342 17.8095 2.19318 17.5445 2.38854 17.3491C2.58389 17.1538 2.84886 17.044 3.12514 17.044H47.9188C47.8447 17.7535 47.6909 18.4524 47.4604 19.1274ZM45.6895 30.0654C44.9555 30.0496 44.2324 30.2448 43.6061 30.6279C43.2894 30.8108 42.9301 30.9071 42.5644 30.9071C42.1986 30.9071 41.8394 30.8108 41.5227 30.6279C40.8928 30.2517 40.1729 30.0531 39.4392 30.0531C38.7056 30.0531 37.9856 30.2517 37.3558 30.6279C37.0429 30.8216 36.6821 30.9243 36.3141 30.9243C35.9461 30.9243 35.5853 30.8216 35.2724 30.6279C34.6425 30.2517 33.9226 30.0531 33.189 30.0531C32.4553 30.0531 31.7354 30.2517 31.1055 30.6279C30.7926 30.8216 30.4319 30.9243 30.0638 30.9243C29.6958 30.9243 29.335 30.8216 29.0221 30.6279C28.393 30.2495 27.6728 30.0496 26.9387 30.0496C26.2046 30.0496 25.4843 30.2495 24.8553 30.6279C24.5423 30.8216 24.1816 30.9243 23.8135 30.9243C23.4455 30.9243 23.0848 30.8216 22.7718 30.6279C22.1428 30.2495 21.4225 30.0496 20.6884 30.0496C19.9543 30.0496 19.234 30.2495 18.605 30.6279C18.2929 30.824 17.9318 30.928 17.5633 30.928C17.1947 30.928 16.8336 30.824 16.5216 30.6279C15.8925 30.2495 15.1722 30.0496 14.4381 30.0496C13.704 30.0496 12.9838 30.2495 12.3547 30.6279C12.043 30.843 11.6706 30.9526 11.2922 30.9405C10.9207 30.9481 10.5563 30.8388 10.2504 30.6279C9.62464 30.2437 8.90118 30.0484 8.16702 30.0654C7.43287 30.0484 6.70941 30.2437 6.0836 30.6279C5.77194 30.843 5.39954 30.9526 5.02105 30.9405C4.64963 30.9481 4.2852 30.8388 3.97934 30.6279C3.35353 30.2437 2.63007 30.0484 1.89592 30.0654C1.61964 30.0654 1.35467 30.1752 1.15931 30.3705C0.963956 30.5659 0.854204 30.8309 0.854204 31.1071C0.854204 31.3834 0.963956 31.6484 1.15931 31.8437C1.35467 32.0391 1.61964 32.1488 1.89592 32.1488C2.26734 32.1412 2.63177 32.2505 2.93763 32.4614C3.56296 32.8467 4.28675 33.0421 5.02105 33.0239C5.75521 33.0409 6.47867 32.8456 7.10448 32.4614C7.41034 32.2505 7.77477 32.1412 8.14619 32.1488C8.52468 32.1367 8.89708 32.2463 9.20874 32.4614C9.83455 32.8456 10.558 33.0409 11.2922 33.0239C12.0263 33.0409 12.7498 32.8456 13.3756 32.4614C13.6877 32.2653 14.0487 32.1613 14.4173 32.1613C14.7858 32.1613 15.1469 32.2653 15.459 32.4614C16.0873 32.842 16.8078 33.0432 17.5424 33.0432C18.277 33.0432 18.9976 32.842 19.6259 32.4614C19.9379 32.2653 20.299 32.1613 20.6676 32.1613C21.0361 32.1613 21.3972 32.2653 21.7093 32.4614C22.3384 32.8398 23.0586 33.0397 23.7927 33.0397C24.5268 33.0397 25.2471 32.8398 25.8761 32.4614C26.1891 32.2677 26.5498 32.165 26.9178 32.165C27.2859 32.165 27.6466 32.2677 27.9596 32.4614C28.5894 32.8376 29.3093 33.0362 30.043 33.0362C30.7766 33.0362 31.4966 32.8376 32.1264 32.4614C32.4393 32.2677 32.8001 32.165 33.1681 32.165C33.5362 32.165 33.8969 32.2677 34.2098 32.4614C34.8397 32.8376 35.5596 33.0362 36.2933 33.0362C37.0269 33.0362 37.7469 32.8376 38.3767 32.4614C38.6934 32.2785 39.0527 32.1822 39.4184 32.1822C39.7841 32.1822 40.1434 32.2785 40.4601 32.4614C41.0935 32.8271 41.8121 33.0196 42.5435 33.0196C43.275 33.0196 43.9935 32.8271 44.627 32.4614C44.9399 32.2489 45.3114 32.1396 45.6895 32.1488C45.9658 32.1488 46.2307 32.0391 46.4261 31.8437C46.6215 31.6484 46.7312 31.3834 46.7312 31.1071C46.7312 30.8309 46.6215 30.5659 46.4261 30.3705C46.2307 30.1752 45.9658 30.0654 45.6895 30.0654Z" fill="#2959A1"/>
</svg>
