<svg width="48" height="49" viewBox="0 0 48 49" fill="none" xmlns="http://www.w3.org/2000/svg">
<path id="Vector" d="M47.2066 34.9225H36.8066C36.9167 34.0303 36.7279 33.1268 36.2697 32.3534C50.8594 23.0706 43.1934 5.35038 26.4066 3.84356V2.92246C26.4066 2.28594 26.1537 1.67549 25.7036 1.2254C25.2536 0.775317 24.6431 0.522461 24.0066 0.522461C23.3701 0.522461 22.7596 0.775317 22.3095 1.2254C21.8594 1.67549 21.6066 2.28594 21.6066 2.92246V30.9225H15.2066C12.9918 30.9622 11.7803 32.833 12.0066 34.9225H0.806592C0.701518 34.9224 0.597462 34.9431 0.500374 34.9832C0.403287 35.0234 0.315072 35.0823 0.240773 35.1566C0.166474 35.2309 0.107549 35.3192 0.0673662 35.4162C0.0271836 35.5133 0.00653198 35.6174 0.00659193 35.7225C0.010473 39.116 1.36029 42.3695 3.75991 44.7691C6.15954 47.1688 9.41301 48.5186 12.8066 48.5225H35.2066C37.3701 48.5239 39.4983 47.9732 41.3896 46.9225H45.6066C46.1843 46.9157 46.7403 46.7007 47.1722 46.317C47.6041 45.9332 47.883 45.4064 47.9577 44.8335C48.0323 44.2605 47.8976 43.6799 47.5784 43.1982C47.2592 42.7166 46.7769 42.3664 46.2202 42.2119C47.3883 40.2487 48.0055 38.0069 48.0066 35.7225C48.0067 35.6174 47.986 35.5133 47.9458 35.4162C47.9056 35.3192 47.8467 35.2309 47.7724 35.1566C47.6981 35.0823 47.6099 35.0234 47.5128 34.9832C47.4157 34.9431 47.3117 34.9224 47.2066 34.9225ZM42.4066 19.7225C42.4066 24.2594 39.6401 28.5382 34.9916 31.2506C34.1219 30.6998 31.3213 30.9888 30.3245 30.9225C34.1622 24.3371 33.4751 10.5818 28.3214 5.74297C36.4062 7.27935 42.4066 13.0366 42.4066 19.7225ZM26.4066 30.9225V6.18789C31.9869 10.0815 32.6423 24.8763 28.4605 30.9225H26.4066ZM23.2066 2.92246C23.2108 2.71306 23.2969 2.51365 23.4465 2.36704C23.5961 2.22044 23.7972 2.13832 24.0066 2.13833C24.2161 2.13834 24.4172 2.22046 24.5667 2.36708C24.7163 2.5137 24.8024 2.71311 24.8066 2.92252V30.9225H23.2066V2.92246ZM13.6066 34.1225C13.6071 33.6983 13.7759 33.2916 14.0758 32.9917C14.3758 32.6918 14.7824 32.523 15.2066 32.5225H33.6066C34.0308 32.523 34.4374 32.6918 34.7374 32.9917C35.0373 33.2916 35.206 33.6983 35.2066 34.1225V34.9225H13.6066V34.1225ZM45.6066 43.7225C45.816 43.7267 46.0154 43.8128 46.162 43.9624C46.3086 44.1119 46.3907 44.313 46.3907 44.5225C46.3907 44.7319 46.3086 44.933 46.162 45.0826C46.0154 45.2322 45.8159 45.3183 45.6065 45.3225H43.6446C44.2023 44.8343 44.7169 44.299 45.1827 43.7225H45.6066ZM35.2066 46.9225H12.8066C10.6882 46.9202 8.61387 46.3178 6.82377 45.1851C5.03366 44.0524 3.60106 42.4358 2.6919 40.5225H14.4066C14.6161 40.5184 14.8156 40.4323 14.9623 40.2827C15.109 40.1331 15.1911 39.932 15.1911 39.7224C15.1911 39.5129 15.1089 39.3118 14.9622 39.1622C14.8155 39.0126 14.616 38.9265 14.4065 38.9225H2.08282C1.84567 38.1414 1.6954 37.3365 1.63472 36.5225H46.3785C46.1727 39.3459 44.9067 41.9871 42.8346 43.9161C40.7625 45.845 38.0376 46.919 35.2066 46.9225Z" fill="#2959A1"/>
</svg>
