<svg width="49" height="32" viewBox="0 0 49 32" fill="none" xmlns="http://www.w3.org/2000/svg">
<path id="Vector" d="M1.83084 5.54052C2.30193 5.67885 2.75481 5.87294 3.17987 6.11868C4.67301 7.00984 6.37946 7.48036 8.11831 7.48036C9.85717 7.48036 11.5636 7.00984 13.0568 6.11868C13.9974 5.58667 15.0596 5.30708 16.1403 5.30708C17.2209 5.30708 18.2832 5.58667 19.2238 6.11868C20.7349 6.98277 22.4455 7.4373 24.1863 7.4373C25.9271 7.4373 27.6377 6.98277 29.1488 6.11868C30.0894 5.58667 31.1517 5.30708 32.2323 5.30708C33.313 5.30708 34.3753 5.58667 35.3159 6.11868C36.8425 6.99119 38.5682 7.45579 40.3266 7.46771C42.0253 7.46421 43.691 6.99782 45.1446 6.11868C45.5696 5.87294 46.0225 5.67885 46.4936 5.54052C47.1069 5.36162 47.6241 4.94641 47.9313 4.38621C48.2385 3.82601 48.3106 3.16671 48.1317 2.55336C47.9528 1.94002 47.5376 1.42285 46.9774 1.11565C46.4172 0.80844 45.7579 0.736355 45.1446 0.915248C44.2999 1.1759 43.4908 1.54001 42.7356 1.9993C41.9681 2.44808 41.0951 2.6846 40.2061 2.6846C39.3171 2.6846 38.4441 2.44808 37.6767 1.9993C36.0064 1.06237 34.1234 0.570312 32.2083 0.570312C30.2931 0.570312 28.4101 1.06237 26.7398 1.9993C25.9643 2.44991 25.0833 2.68726 24.1863 2.68726C23.2893 2.68726 22.4083 2.44991 21.6328 1.9993C19.9625 1.06237 18.0795 0.570312 16.1644 0.570312C14.2492 0.570312 12.3662 1.06237 10.6959 1.9993C9.92851 2.44808 9.0555 2.6846 8.16649 2.6846C7.27748 2.6846 6.40447 2.44808 5.63705 1.9993C4.88181 1.54001 4.07267 1.1759 3.22805 0.915248C2.6147 0.736355 1.95541 0.80844 1.39521 1.11565C0.835011 1.42285 0.419793 1.94002 0.2409 2.55336C0.0620061 3.16671 0.134092 3.82601 0.441298 4.38621C0.748504 4.94641 1.26567 5.36162 1.87902 5.54052H1.83084ZM45.1927 25.0052C44.3481 25.2658 43.539 25.63 42.7837 26.0892C42.0163 26.538 41.1433 26.7745 40.2543 26.7745C39.3653 26.7745 38.4923 26.538 37.7249 26.0892C36.0546 25.1523 34.1716 24.6603 32.2564 24.6603C30.3413 24.6603 28.4583 25.1523 26.788 26.0892C26.0125 26.5399 25.1315 26.7772 24.2345 26.7772C23.3375 26.7772 22.4565 26.5399 21.681 26.0892C20.0107 25.1523 18.1277 24.6603 16.2125 24.6603C14.2974 24.6603 12.4144 25.1523 10.7441 26.0892C9.97669 26.538 9.10368 26.7745 8.21467 26.7745C7.32566 26.7745 6.45265 26.538 5.68523 26.0892C4.92999 25.63 4.12085 25.2658 3.27623 25.0052C2.97253 24.9166 2.65436 24.8887 2.33988 24.9231C2.0254 24.9575 1.72077 25.0535 1.44339 25.2056C1.16601 25.3577 0.921302 25.563 0.723245 25.8097C0.525188 26.0563 0.377658 26.3396 0.289079 26.6433C0.2005 26.947 0.172607 27.2652 0.206991 27.5797C0.241376 27.8941 0.337365 28.1988 0.489478 28.4762C0.641591 28.7535 0.846849 28.9982 1.09353 29.1963C1.34022 29.3944 1.6235 29.5419 1.9272 29.6305C2.39829 29.7688 2.85117 29.9629 3.27623 30.2086C4.76937 31.0998 6.47582 31.5703 8.21467 31.5703C9.95353 31.5703 11.66 31.0998 13.1531 30.2086C14.0937 29.6766 15.156 29.397 16.2366 29.397C17.3173 29.397 18.3795 29.6766 19.3201 30.2086C20.8313 31.0727 22.5419 31.5273 24.2827 31.5273C26.0234 31.5273 27.734 31.0727 29.2452 30.2086C30.1858 29.6766 31.2481 29.397 32.3287 29.397C33.4094 29.397 34.4716 29.6766 35.4122 30.2086C36.9389 31.0811 38.6646 31.5457 40.4229 31.5577C42.1217 31.5542 43.7874 31.0878 45.2409 30.2086C45.666 29.9629 46.1189 29.7688 46.59 29.6305C47.2033 29.4516 47.7205 29.0364 48.0277 28.4762C48.3349 27.916 48.407 27.2567 48.2281 26.6433C48.0492 26.03 47.634 25.5128 47.0738 25.2056C46.5136 24.8984 45.8543 24.8263 45.2409 25.0052H45.1927ZM45.1927 12.9602C44.3481 13.2209 43.539 13.585 42.7837 14.0443C42.0163 14.4931 41.1433 14.7296 40.2543 14.7296C39.3653 14.7296 38.4923 14.4931 37.7249 14.0443C36.0546 13.1073 34.1716 12.6153 32.2564 12.6153C30.3413 12.6153 28.4583 13.1073 26.788 14.0443C26.0125 14.4949 25.1315 14.7322 24.2345 14.7322C23.3375 14.7322 22.4565 14.4949 21.681 14.0443C20.0107 13.1073 18.1277 12.6153 16.2125 12.6153C14.2974 12.6153 12.4144 13.1073 10.7441 14.0443C9.97669 14.4931 9.10368 14.7296 8.21467 14.7296C7.32566 14.7296 6.45265 14.4931 5.68523 14.0443C4.92999 13.585 4.12085 13.2209 3.27623 12.9602C2.9608 12.8411 2.62389 12.7896 2.28729 12.8089C1.95068 12.8282 1.62188 12.918 1.32215 13.0724C1.02243 13.2268 0.758449 13.4424 0.547297 13.7053C0.336145 13.9681 0.18252 14.2724 0.09636 14.5983C0.00778094 14.902 -0.0201127 15.2202 0.0142717 15.5347C0.0486561 15.8492 0.144645 16.1538 0.296758 16.4312C0.448872 16.7086 0.65413 16.9533 0.900814 17.1513C1.1475 17.3494 1.43078 17.4969 1.73448 17.5855C2.20557 17.7238 2.65845 17.9179 3.08351 18.1637C4.57665 19.0548 6.2831 19.5253 8.02195 19.5253C9.76081 19.5253 11.4673 19.0548 12.9604 18.1637C13.901 17.6316 14.9633 17.352 16.0439 17.352C17.1245 17.352 18.1868 17.6316 19.1274 18.1637C20.6386 19.0277 22.3492 19.4823 24.0899 19.4823C25.8307 19.4823 27.5413 19.0277 29.0525 18.1637C29.9931 17.6316 31.0553 17.352 32.136 17.352C33.2166 17.352 34.2789 17.6316 35.2195 18.1637C36.7462 19.0362 38.4718 19.5008 40.2302 19.5127C41.929 19.5092 43.5946 19.0428 45.0482 18.1637C45.4733 17.9179 45.9261 17.7238 46.3972 17.5855C47.0106 17.4066 47.5278 16.9914 47.835 16.4312C48.1422 15.871 48.2142 15.2117 48.0354 14.5983C47.8565 13.985 47.4412 13.4678 46.881 13.1606C46.3208 12.8534 45.6616 12.7813 45.0482 12.9602H45.1927Z" fill="#2959A1"/>
</svg>
