<svg width="24" height="64" viewBox="0 0 24 64" fill="none" xmlns="http://www.w3.org/2000/svg">
<path id="Vector" d="M13.0815 0.00141242C12.7993 0.0213214 12.5361 0.150613 12.3478 0.361748C12.3478 0.361748 10.4159 2.50423 8.47744 5.18721C7.50714 6.5287 6.53032 8.00478 5.78143 9.4548C5.03037 10.9092 4.47033 12.3136 4.47033 13.6877C4.47033 18.0812 7.80235 21.678 12.0678 22.2185V24.4977H4.47033C2.08256 24.4977 0.128934 26.4514 0.128934 28.8391V33.8838C0.128517 33.9012 0.128517 33.9186 0.128934 33.9359C0.127595 33.967 0.127595 33.9982 0.128934 34.0293V35.0973C0.128934 36.4735 1.05582 37.6153 2.29963 38.0494V40.6673C1.0428 41.1209 0.128934 42.3214 0.128934 43.7236C0.128934 45.1281 1.0428 46.3241 2.29963 46.7778V59.2289C2.29963 61.6167 4.25326 63.5703 6.64103 63.5703H19.6652C22.053 63.5703 24.0066 61.6167 24.0066 59.2289V28.8391C24.0066 26.4514 22.053 24.4977 19.6652 24.4977H14.2385V22.2185C18.5039 21.678 21.8359 18.0812 21.8359 13.6877C21.8359 12.3136 21.2759 10.907 20.5248 9.4548C19.7759 8.00478 18.7991 6.5287 17.8288 5.18721C16.6166 3.51772 15.325 1.90738 13.9585 0.361748C13.8614 0.253403 13.7435 0.165673 13.6119 0.103772C13.4803 0.0418711 13.3375 0.00706182 13.1922 0.00141242C13.1553 -0.000470805 13.1184 -0.000470805 13.0815 0.00141242ZM13.1531 2.82115C13.7175 3.46368 14.6162 4.44266 16.0749 6.45707C17.0039 7.74429 17.9265 9.14874 18.6016 10.4512C19.2745 11.7536 19.6652 12.9713 19.6652 13.6855C19.6652 15.0487 19.2463 16.3055 18.5299 17.3453C18.5451 17.1716 18.5799 17.0023 18.5799 16.8243C18.5799 15.8909 18.2282 15.0313 17.7832 14.1544C17.3206 13.2668 16.7946 12.4137 16.2095 11.6016C15.085 10.0083 13.9671 8.74282 13.9671 8.74282C13.8595 8.61993 13.7255 8.52292 13.5752 8.45903C13.4248 8.39513 13.262 8.366 13.0989 8.3738C12.954 8.38141 12.8121 8.41799 12.6816 8.48137C12.5511 8.54475 12.4347 8.63365 12.3391 8.74282C12.3391 8.74282 11.2212 10.0083 10.0968 11.6016C9.51172 12.413 8.98578 13.2654 8.52302 14.1522C8.07803 15.0313 7.72638 15.8931 7.72638 16.8222C7.72638 17.0023 7.76111 17.1695 7.7763 17.3453C7.03437 16.2701 6.6383 14.994 6.64103 13.6877C6.64103 12.9713 7.03175 11.7557 7.70467 10.4533C8.37759 9.15091 9.30231 7.74429 10.2314 6.45924C11.6901 4.44049 12.5887 3.46368 13.1531 2.82115ZM13.1531 11.2152C13.5547 11.6993 13.7978 11.9446 14.4382 12.8519C14.9591 13.59 15.4801 14.4018 15.8491 15.1312C16.2181 15.8627 16.4092 16.5356 16.4092 16.8243C16.4092 18.689 14.9548 20.1563 13.1531 20.1563C11.3514 20.1563 9.89708 18.689 9.89708 16.8243C9.89708 16.5356 10.0881 15.8627 10.4571 15.1312C10.8261 14.4018 11.3471 13.59 11.8681 12.8519C12.5084 11.9446 12.7515 11.6993 13.1531 11.2152ZM4.47033 26.6684H12.8992C13.0647 26.7079 13.2372 26.7079 13.4028 26.6684H13.7587C13.3854 27.3088 13.1531 28.0468 13.1531 28.8391V29.9831C13.1522 30.0091 13.1522 30.0352 13.1531 30.0612V32.9266C13.1531 33.4562 12.719 33.9012 12.0678 33.9012C11.4166 33.9012 10.9824 33.4562 10.9824 32.9244V31.5525C10.9824 29.7964 9.48247 28.405 7.72638 28.405C5.97028 28.405 4.47033 29.7964 4.47033 31.5525V35.0973C4.47033 35.6269 4.03619 36.0719 3.38498 36.0719C2.73377 36.0719 2.29963 35.6269 2.29963 35.0951V34.0293C2.30012 34.0105 2.30012 33.9916 2.29963 33.9728C2.30079 33.9439 2.30079 33.9149 2.29963 33.886V28.8391C2.29963 27.617 3.24823 26.6684 4.47033 26.6684ZM17.4945 26.6684H19.6652C20.8873 26.6684 21.8359 27.617 21.8359 28.8391V59.2289C21.8359 60.451 20.8873 61.3996 19.6652 61.3996H6.64103C5.41893 61.3996 4.47033 60.451 4.47033 59.2289V46.7778C5.72716 46.3241 6.64103 45.1281 6.64103 43.7236C6.64103 42.3214 5.72716 41.1188 4.47033 40.6673V38.0472C5.71414 37.6131 6.64103 36.4735 6.64103 35.0951V31.5525C6.64103 31.0229 7.07517 30.5757 7.72638 30.5757C8.37759 30.5757 8.81173 31.0229 8.81173 31.5525V32.9266C8.81173 34.6827 10.3117 36.0719 12.0678 36.0719C13.8239 36.0719 15.3238 34.6827 15.3238 32.9244V32.1668C15.3246 32.143 15.3246 32.1191 15.3238 32.0952V28.8391C15.3238 27.617 16.2724 26.6684 17.4945 26.6684ZM12.0678 38.2969C10.2813 38.2969 8.81173 39.7686 8.81173 41.5529C8.81173 43.3394 10.2813 44.809 12.0678 44.809C13.8543 44.809 15.3238 43.3394 15.3238 41.5529C15.3238 39.7686 13.8543 38.2969 12.0678 38.2969ZM12.0678 40.4676C12.6799 40.4676 13.1531 40.9408 13.1531 41.5529C13.1531 42.1651 12.6799 42.6383 12.0678 42.6383C11.9247 42.6403 11.7826 42.6136 11.65 42.5598C11.5174 42.506 11.397 42.4261 11.2958 42.3249C11.1946 42.2237 11.1147 42.1033 11.0609 41.9707C11.0071 41.8381 10.9804 41.696 10.9824 41.5529C10.9824 40.9408 11.4556 40.4676 12.0678 40.4676ZM3.38498 42.6383C3.99712 42.6383 4.47033 43.1115 4.47033 43.7236C4.47033 44.3358 3.99712 44.809 3.38498 44.809C3.24188 44.811 3.09983 44.7843 2.96723 44.7305C2.83462 44.6767 2.71416 44.5968 2.61296 44.4956C2.51177 44.3944 2.4319 44.274 2.37808 44.1414C2.32426 44.0088 2.29759 43.8667 2.29963 43.7236C2.29963 43.1115 2.77284 42.6383 3.38498 42.6383Z" fill="#2959A1"/>
</svg>
