<svg width="43" height="40" viewBox="0 0 43 40" fill="none" xmlns="http://www.w3.org/2000/svg">
<path id="Vector" d="M30.17 19.3086C30.2933 16.122 29.758 12.9442 28.5974 9.97392C27.4369 7.00362 25.676 4.30466 23.425 2.04577L21.9285 0.570312L20.432 2.04577C18.2689 4.19184 16.5547 6.74712 15.3894 9.56259C14.2242 12.3781 13.6311 15.3973 13.6449 18.4444C13.6449 18.7395 13.6449 19.0346 13.6449 19.3086C10.4152 17.3739 6.72315 16.3471 2.95838 16.3366H0.850586V18.4444C0.85052 23.6697 2.79137 28.7088 6.29661 32.5841C9.80185 36.4593 14.6216 38.8944 19.8207 39.4169V39.5223H24.0363V39.4169C29.2355 38.8944 34.0552 36.4593 37.5604 32.5841C41.0657 28.7088 43.0065 23.6697 43.0064 18.4444V16.3366H40.8986C37.1196 16.3395 33.4119 17.3666 30.17 19.3086ZM21.9285 6.70399C23.7377 9.00643 24.9894 11.6965 25.5855 14.5634C26.1815 17.4303 26.1058 20.3963 25.3642 23.2291C23.9792 24.7393 22.8218 26.4435 21.9285 28.2878C21.0353 26.4435 19.8779 24.7393 18.4928 23.2291C18.0808 21.6673 17.8683 20.0596 17.8605 18.4444C17.8451 14.1827 19.2797 10.0425 21.9285 6.70399ZM5.21372 20.6997C8.87503 21.1931 12.273 22.8752 14.8853 25.4876C17.4977 28.0999 19.1798 31.4979 19.6732 35.1592C16.0119 34.6658 12.6139 32.9837 10.0015 30.3714C7.3892 27.759 5.70708 24.361 5.21372 20.6997ZM24.1838 35.1592C24.6772 31.4979 26.3593 28.0999 28.9717 25.4876C31.584 22.8752 34.982 21.1931 38.6433 20.6997C38.1499 24.361 36.4678 27.759 33.8555 30.3714C31.2431 32.9837 27.8452 34.6658 24.1838 35.1592Z" fill="#2959A1"/>
</svg>
